ply
format ascii 1.0
comment generated by: python
element vertex 1324
property float x
property float y
property float z
end_header
-35.44 950.00 245.74
-32.74 947.30 244.97
-30.13 946.40 244.71
-27.52 945.50 244.46
-24.97 946.40 244.72
-22.37 945.50 244.46
-19.79 945.50 244.46
-17.21 945.50 244.47
-14.65 946.40 244.73
-12.07 946.40 244.73
-9.50 947.30 244.99
-6.94 949.10 245.51
-40.53 948.20 242.66
-37.83 945.50 241.89
-35.14 942.80 241.13
-32.54 941.90 240.87
-29.94 941.00 240.62
-27.38 941.00 240.62
-24.81 941.00 240.63
-22.27 941.90 240.88
-19.71 941.90 240.89
-17.14 941.90 240.89
-14.59 942.80 241.14
-12.02 942.80 241.15
-9.45 942.80 241.15
-6.90 944.60 241.66
-4.33 945.50 241.92
-1.76 948.20 242.68
0.83 948.20 242.68
-45.71 948.20 240.08
-43.03 946.40 239.58
-40.32 943.70 238.83
-37.67 941.90 238.32
-34.99 939.20 237.57
-32.40 938.30 237.32
-29.85 938.30 237.32
-27.29 938.30 237.32
-24.76 939.20 237.58
-22.23 940.10 237.83
-19.65 939.20 237.58
-17.11 940.10 237.84
-14.53 939.20 237.58
-11.99 940.10 237.84
-9.41 939.20 237.59
-6.87 941.00 238.09
-4.31 941.90 238.35
-1.75 943.70 238.85
0.82 945.50 239.36
3.41 948.20 240.12
11.19 950.00 240.62
-50.88 948.20 237.51
-48.09 944.60 236.51
-45.37 941.90 235.77
-42.76 941.00 235.52
-40.16 940.10 235.27
-37.56 939.20 235.03
-34.92 937.40 234.53
-32.34 936.50 234.28
-29.79 936.50 234.28
-27.24 936.50 234.29
-24.66 935.60 234.04
-22.14 936.50 234.29
-19.57 935.60 234.04
-17.04 936.50 234.29
-14.49 936.50 234.29
-11.96 938.30 234.80
-9.41 938.30 234.80
-6.86 939.20 235.05
-4.29 938.30 234.80
-1.74 940.10 235.30
0.82 941.90 235.80
3.40 945.50 236.80
6.00 948.20 237.56
8.58 948.20 237.55
11.16 947.30 237.30
13.74 947.30 237.30
16.36 949.10 237.80
18.97 950.00 238.05
-56.17 950.00 235.43
-53.24 944.60 233.95
-50.51 941.90 233.21
-47.84 940.10 232.72
-45.18 938.30 232.23
-42.54 936.50 231.74
-39.99 936.50 231.74
-37.44 936.50 231.74
-34.89 936.50 231.75
-32.30 935.60 231.50
-29.73 934.70 231.26
-27.18 934.70 231.26
-24.64 934.70 231.26
-22.09 934.70 231.26
-19.53 933.80 231.02
-17.00 934.70 231.27
-14.46 934.70 231.27
-11.95 937.40 232.01
-9.39 936.50 231.77
-6.84 936.50 231.77
-4.28 935.60 231.52
-1.74 937.40 232.02
0.82 939.20 232.51
3.39 941.90 233.26
5.97 944.60 234.00
8.56 945.50 234.25
11.15 946.40 234.49
13.71 945.50 234.24
16.31 946.40 234.49
18.93 948.20 234.99
21.56 950.00 235.48
-58.70 949.10 232.61
-55.76 943.70 231.15
-52.97 940.10 230.17
-50.24 937.40 229.44
-47.64 936.50 229.20
-45.00 934.70 228.71
-42.41 933.80 228.47
-39.86 933.80 228.48
-37.32 933.80 228.48
-34.82 934.70 228.73
-32.24 933.80 228.49
-29.66 932.90 228.24
-27.12 932.90 228.25
-24.59 932.90 228.25
-22.05 932.90 228.25
-19.48 932.00 228.01
-16.97 932.90 228.25
-14.44 933.80 228.50
-11.92 935.60 228.99
-9.38 935.60 228.99
-6.82 934.70 228.75
-4.27 932.90 228.26
-1.73 934.70 228.75
0.82 936.50 229.24
3.38 939.20 229.97
5.95 941.00 230.46
8.53 942.80 230.95
11.13 944.60 231.44
13.70 944.60 231.44
16.31 946.40 231.93
18.91 947.30 232.17
21.54 949.10 232.66
24.13 949.10 232.66
-61.17 947.30 229.55
-58.28 942.80 228.35
-55.47 939.20 227.38
-52.74 936.50 226.66
-50.09 934.70 226.18
-47.54 934.70 226.18
-44.95 933.80 225.95
-42.36 932.90 225.71
-39.74 931.10 225.23
-37.25 932.00 225.47
-34.75 932.90 225.72
-32.17 932.00 225.48
-29.57 930.20 225.00
-27.04 930.20 225.00
-24.51 930.20 225.00
-22.02 932.00 225.49
-19.47 931.10 225.25
-16.95 932.00 225.49
-14.43 932.90 225.74
-11.91 934.70 226.22
-9.37 934.70 226.22
-6.81 933.80 225.98
-4.26 932.00 225.50
-1.73 933.80 225.98
0.81 934.70 226.22
3.37 937.40 226.95
5.94 940.10 227.68
8.52 941.90 228.16
11.10 942.80 228.40
13.67 942.80 228.40
16.29 945.50 229.13
18.89 946.40 229.37
21.52 948.20 229.85
24.11 948.20 229.85
26.75 950.00 230.33
-63.69 946.40 226.75
-60.78 941.90 225.55
-58.03 939.20 224.84
-55.30 936.50 224.12
-52.58 933.80 223.41
-49.93 932.00 222.94
-47.39 932.00 222.94
-44.86 932.00 222.94
-42.28 931.10 222.71
-39.74 931.10 222.71
-37.17 930.20 222.47
-34.60 929.30 222.24
-32.04 928.40 222.00
-29.51 928.40 222.00
-27.01 929.30 222.25
-24.51 930.20 222.49
-22.03 932.00 222.97
-19.47 931.10 222.73
-16.93 931.10 222.73
-14.40 931.10 222.74
-11.89 932.90 223.22
-9.35 932.90 223.22
-6.81 932.90 223.22
-4.27 932.90 223.22
-1.73 932.90 223.22
0.81 933.80 223.46
3.36 935.60 223.94
5.94 939.20 224.90
8.52 941.00 225.38
11.08 941.00 225.37
13.66 941.90 225.61
16.28 944.60 226.33
18.87 945.50 226.57
21.48 946.40 226.81
24.08 947.30 227.04
26.75 950.00 227.76
-66.20 945.50 223.94
-63.22 940.10 222.53
-60.47 937.40 221.82
-57.85 936.50 221.59
-55.13 933.80 220.88
-52.47 932.00 220.41
-49.88 931.10 220.18
-47.30 930.20 219.95
-44.72 929.30 219.71
-42.14 928.40 219.48
-39.66 929.30 219.72
-37.13 929.30 219.73
-34.57 928.40 219.49
-32.00 927.50 219.26
-29.48 927.50 219.26
-26.96 927.50 219.26
-24.49 929.30 219.74
-22.00 931.10 220.22
-19.45 930.20 219.98
-16.92 930.20 219.98
-14.38 930.20 219.98
-11.86 931.10 220.22
-9.33 931.10 220.22
-6.80 932.00 220.46
-4.27 932.90 220.70
-1.73 932.90 220.70
0.81 933.80 220.94
3.36 935.60 221.41
5.93 938.30 222.12
8.51 940.10 222.59
11.07 940.10 222.59
13.65 941.00 222.83
16.25 942.80 223.30
18.86 944.60 223.77
21.45 945.50 224.01
24.14 949.10 224.96
-68.86 946.40 221.61
-65.79 940.10 219.98
-62.96 936.50 219.05
-60.21 933.80 218.35
-57.67 933.80 218.35
-55.01 932.00 217.89
-52.36 930.20 217.43
-49.78 929.30 217.20
-47.20 928.40 216.97
-44.62 927.50 216.74
-42.10 927.50 216.74
-39.62 928.40 216.98
-37.09 928.40 216.98
-34.57 928.40 216.98
-32.01 927.50 216.75
-29.48 927.50 216.76
-26.99 928.40 216.99
-24.49 929.30 217.23
-21.96 929.30 217.23
-19.41 928.40 217.00
-16.90 929.30 217.23
-14.37 929.30 217.24
-11.85 930.20 217.47
-9.32 930.20 217.47
-6.79 931.10 217.71
-4.26 932.00 217.94
-1.73 932.00 217.94
0.81 933.80 218.41
3.36 934.70 218.65
5.93 937.40 219.35
8.50 939.20 219.82
11.07 940.10 220.05
13.63 940.10 220.05
16.23 941.90 220.52
18.84 943.70 220.98
21.46 945.50 221.45
24.11 948.20 222.15
-71.52 947.30 219.28
-68.35 940.10 217.43
-65.51 936.50 216.51
-62.76 933.80 215.82
-60.15 932.90 215.59
-57.62 932.90 215.60
-55.02 932.00 215.37
-52.31 929.30 214.68
-49.68 927.50 214.22
-47.05 925.70 213.76
-44.48 924.80 213.54
-41.97 924.80 213.54
-39.54 926.60 214.01
-37.10 928.40 214.47
-34.57 928.40 214.48
-32.04 928.40 214.48
-29.52 928.40 214.48
-26.96 927.50 214.25
-24.38 925.70 213.79
-21.87 925.70 213.79
-19.37 926.60 214.03
-16.88 928.40 214.49
-14.36 928.40 214.49
-11.84 929.30 214.73
-9.32 930.20 214.96
-6.78 929.30 214.73
-4.26 931.10 215.19
-1.73 932.00 215.42
0.81 932.90 215.66
3.36 934.70 216.12
5.92 936.50 216.58
8.49 938.30 217.04
11.06 939.20 217.27
13.63 940.10 217.51
16.23 941.90 217.97
18.86 944.60 218.66
21.48 946.40 219.12
24.16 950.00 220.05
-71.15 942.80 215.57
-68.14 937.40 214.20
-65.38 934.70 213.52
-62.70 932.90 213.07
-60.16 932.90 213.07
-57.62 932.90 213.08
-54.96 931.10 212.62
-52.20 927.50 211.71
-49.63 926.60 211.49
-47.11 926.60 211.49
-44.54 925.70 211.27
-42.02 925.70 211.27
-39.50 925.70 211.27
-37.02 926.60 211.51
-34.46 925.70 211.28
-32.01 927.50 211.74
-29.49 927.50 211.74
-26.96 927.50 211.75
-24.36 924.80 211.06
-21.82 923.90 210.84
-19.31 923.90 210.84
-16.83 925.70 211.30
-14.36 928.40 211.99
-11.84 929.30 212.22
-9.32 930.20 212.45
-6.78 929.30 212.22
-4.25 929.30 212.22
-1.72 930.20 212.45
0.81 932.00 212.90
3.36 933.80 213.36
5.91 935.60 213.82
8.47 936.50 214.05
11.05 938.30 214.51
13.62 939.20 214.73
16.23 941.90 215.42
18.84 943.70 215.87
21.46 945.50 216.33
24.12 948.20 217.02
-74.03 946.40 213.91
-71.00 941.00 212.56
-68.15 937.40 211.66
-65.31 933.80 210.76
-62.70 932.90 210.54
-60.10 932.00 210.32
-57.50 931.10 210.10
-54.85 929.30 209.65
-52.09 925.70 208.75
-49.47 923.90 208.31
-47.01 924.80 208.54
-44.54 925.70 208.77
-41.98 924.80 208.54
-39.42 923.90 208.32
-36.94 924.80 208.55
-34.39 923.90 208.33
-31.91 924.80 208.56
-29.43 925.70 208.79
-26.91 925.70 208.79
-24.34 923.90 208.34
-21.80 923.00 208.11
-19.29 923.00 208.12
-16.79 923.90 208.34
-14.33 926.60 209.02
-11.82 927.50 209.25
-9.31 929.30 209.70
-6.77 928.40 209.48
-4.25 928.40 209.48
-1.72 927.50 209.25
0.81 930.20 209.93
3.35 932.90 210.61
5.91 934.70 211.06
8.45 933.80 210.84
11.04 937.40 211.74
13.62 939.20 212.19
16.23 941.90 212.87
18.82 942.80 213.09
21.44 944.60 213.54
24.12 948.20 214.45
-76.94 950.00 212.24
-73.80 943.70 210.68
-70.93 940.10 209.79
-68.15 937.40 209.13
-65.32 933.80 208.24
-62.71 932.90 208.02
-59.98 930.20 207.36
-57.44 930.20 207.36
-54.74 927.50 206.70
-52.04 924.80 206.03
-49.42 923.00 205.59
-46.91 923.00 205.59
-44.45 923.90 205.82
-41.89 923.00 205.60
-39.34 922.10 205.38
-36.83 922.10 205.38
-34.36 923.00 205.61
-31.85 923.00 205.61
-29.40 924.80 206.06
-26.85 923.90 205.84
-24.31 923.00 205.62
-21.80 923.00 205.62
-19.27 922.10 205.40
-16.80 923.90 205.85
-14.31 925.70 206.30
-11.81 926.60 206.52
-9.29 927.50 206.75
-6.77 927.50 206.75
-4.24 927.50 206.75
-1.72 928.40 206.97
0.81 930.20 207.42
3.35 932.00 207.86
5.90 932.90 208.09
8.44 932.90 208.09
11.04 937.40 209.20
13.64 940.10 209.87
16.25 942.80 210.54
18.80 941.90 210.32
21.42 943.70 210.76
24.09 947.30 211.65
-76.71 947.30 209.00
-73.73 942.80 207.90
-70.86 939.20 207.03
-68.08 936.50 206.37
-65.25 932.90 205.49
-62.58 931.10 205.06
-59.85 928.40 204.40
-57.26 927.50 204.18
-54.62 925.70 203.75
-51.93 923.00 203.09
-49.32 921.20 202.65
-46.81 921.20 202.66
-44.35 922.10 202.88
-41.80 921.20 202.66
-39.25 920.30 202.45
-36.75 920.30 202.45
-34.28 921.20 202.67
-31.81 922.10 202.90
-29.34 923.00 203.12
-26.83 923.00 203.12
-24.29 922.10 202.90
-21.80 923.00 203.13
-19.29 923.00 203.13
-16.80 923.90 203.35
-14.27 923.00 203.13
-11.76 923.00 203.13
-9.26 924.80 203.58
-6.76 926.60 204.02
-4.25 928.40 204.46
-1.72 930.20 204.90
0.81 930.20 204.90
3.35 931.10 205.12
5.90 932.90 205.56
8.45 933.80 205.78
11.05 938.30 206.89
13.62 939.20 207.11
16.24 941.90 207.77
18.81 941.90 207.77
21.44 944.60 208.43
24.12 948.20 209.31
-76.63 946.40 206.21
-73.66 941.90 205.13
-70.79 938.30 204.26
-68.02 935.60 203.62
-65.19 932.00 202.75
-62.52 930.20 202.32
-59.86 928.40 201.89
-57.27 927.50 201.68
-54.63 925.70 201.24
-52.05 924.80 201.03
-49.48 923.90 200.82
-46.92 923.00 200.60
-44.31 921.20 200.17
-41.71 919.40 199.74
-39.21 919.40 199.74
-36.67 918.50 199.53
-34.21 919.40 199.75
-31.71 919.40 199.75
-29.28 921.20 200.19
-26.77 921.20 200.19
-24.24 920.30 199.98
-21.76 921.20 200.20
-19.27 922.10 200.42
-16.78 923.00 200.64
-14.25 922.10 200.42
-11.73 921.20 200.20
-9.24 923.00 200.64
-6.76 926.60 201.51
-4.24 927.50 201.73
-1.72 930.20 202.39
0.81 929.30 202.17
3.34 930.20 202.39
5.89 932.00 202.82
8.47 935.60 203.69
11.05 938.30 204.35
13.64 940.10 204.78
16.22 941.00 205.00
18.83 942.80 205.43
21.45 944.60 205.87
24.12 948.20 206.74
-76.64 946.40 203.65
-73.59 941.00 202.36
-70.80 938.30 201.72
-67.95 934.70 200.87
-65.13 931.10 200.01
-62.39 928.40 199.37
-59.73 926.60 198.95
-57.15 925.70 198.74
-54.51 923.90 198.31
-52.00 923.90 198.32
-49.43 923.00 198.10
-46.87 922.10 197.89
-44.31 921.20 197.68
-41.67 918.50 197.04
-39.22 919.40 197.26
-36.68 918.50 197.05
-34.18 918.50 197.05
-31.65 917.60 196.84
-29.15 917.60 196.84
-26.68 918.50 197.06
-24.21 919.40 197.28
-21.71 919.40 197.28
-19.25 921.20 197.71
-16.75 921.20 197.71
-14.25 922.10 197.93
-11.73 921.20 197.71
-9.26 923.90 198.36
-6.76 926.60 199.01
-4.24 927.50 199.22
-1.72 928.40 199.44
0.81 928.40 199.44
3.35 930.20 199.87
5.90 932.90 200.52
8.47 935.60 201.16
11.04 937.40 201.59
13.61 938.30 201.81
16.21 940.10 202.23
18.81 941.90 202.66
21.45 944.60 203.31
24.13 948.20 204.17
-79.39 948.20 201.50
-76.48 944.60 200.66
-73.59 941.00 199.81
-70.80 938.30 199.18
-67.88 933.80 198.13
-65.13 931.10 197.49
-62.46 929.30 197.07
-59.74 926.60 196.44
-57.09 924.80 196.02
-54.46 923.00 195.60
-51.95 923.00 195.61
-49.49 923.90 195.82
-46.82 921.20 195.19
-44.27 920.30 194.98
-41.68 918.50 194.56
-39.22 919.40 194.77
-36.68 918.50 194.56
-34.18 918.50 194.57
-31.61 916.70 194.15
-29.09 915.80 193.94
-26.60 915.80 193.94
-24.14 916.70 194.15
-21.67 917.60 194.37
-19.21 919.40 194.79
-16.75 921.20 195.22
-14.27 923.00 195.65
-11.77 923.90 195.86
-9.26 923.90 195.86
-6.76 925.70 196.29
-4.23 925.70 196.29
-1.72 927.50 196.71
0.81 928.40 196.93
3.35 931.10 197.57
5.89 932.00 197.78
8.46 934.70 198.42
11.04 937.40 199.05
13.63 939.20 199.48
16.22 941.00 199.90
18.81 941.90 200.11
21.47 945.50 200.96
24.13 948.20 201.60
-79.31 947.30 198.72
-76.49 944.60 198.10
-73.60 941.00 197.27
-70.88 939.20 196.85
-68.03 935.60 196.02
-65.21 932.00 195.18
-62.40 928.40 194.35
-59.68 925.70 193.73
-56.91 922.10 192.89
-54.29 920.30 192.48
-51.73 919.40 192.27
-49.28 920.30 192.48
-46.73 919.40 192.28
-44.18 918.50 192.07
-41.68 918.50 192.08
-39.27 920.30 192.50
-36.72 919.40 192.29
-34.22 919.40 192.30
-31.65 917.60 191.88
-29.16 917.60 191.88
-26.63 916.70 191.67
-24.16 917.60 191.89
-21.69 918.50 192.10
-19.21 919.40 192.31
-16.77 922.10 192.94
-14.29 923.90 193.36
-11.80 925.70 193.78
-9.28 925.70 193.78
-6.76 925.70 193.78
-4.24 925.70 193.79
-1.72 928.40 194.42
0.81 929.30 194.63
3.35 931.10 195.05
5.89 931.10 195.04
8.46 934.70 195.88
11.03 936.50 196.30
13.61 938.30 196.72
16.21 940.10 197.14
18.81 941.90 197.56
21.50 946.40 198.61
24.16 949.10 199.23
-79.32 947.30 196.15
-76.41 943.70 195.33
-73.61 941.00 194.71
-70.89 939.20 194.31
-68.04 935.60 193.48
-65.28 932.90 192.87
-62.47 929.30 192.04
-59.68 925.70 191.22
-56.92 922.10 190.40
-54.29 920.30 189.99
-51.67 918.50 189.58
-49.23 919.40 189.79
-46.78 920.30 190.00
-44.28 920.30 190.00
-41.77 920.30 190.01
-39.27 920.30 190.01
-36.73 919.40 189.81
-34.15 917.60 189.40
-31.62 916.70 189.19
-29.16 917.60 189.40
-26.66 917.60 189.40
-24.19 918.50 189.61
-21.69 918.50 189.62
-19.19 918.50 189.62
-16.73 920.30 190.03
-14.26 922.10 190.45
-11.79 924.80 191.07
-9.26 923.90 190.87
-6.74 923.90 190.87
-4.23 923.90 190.87
-1.72 928.40 191.90
0.81 928.40 191.90
3.35 930.20 192.32
5.89 931.10 192.52
8.46 934.70 193.35
11.03 936.50 193.77
13.62 938.30 194.18
16.19 939.20 194.39
18.81 941.90 195.01
21.50 946.40 196.04
24.18 950.00 196.87
-79.33 947.30 193.58
-76.50 944.60 192.98
-73.77 942.80 192.57
-70.97 940.10 191.97
-68.12 936.50 191.15
-65.22 932.00 190.14
-62.34 927.50 189.12
-59.62 924.80 188.51
-56.92 922.10 187.90
-54.29 920.30 187.50
-51.62 917.60 186.89
-49.18 918.50 187.10
-46.73 919.40 187.31
-44.23 919.40 187.31
-41.73 919.40 187.32
-39.27 920.30 187.52
-36.77 920.30 187.53
-34.19 918.50 187.12
-31.66 917.60 186.92
-29.16 917.60 186.92
-26.69 918.50 187.13
-24.22 919.40 187.33
-21.72 919.40 187.34
-19.20 918.50 187.13
-16.71 919.40 187.34
-14.24 921.20 187.75
-11.77 923.90 188.37
-9.27 924.80 188.57
-6.74 923.90 188.37
-4.23 923.90 188.37
-1.71 925.70 188.78
0.81 926.60 188.98
3.34 929.30 189.59
5.89 931.10 190.00
8.46 934.70 190.82
11.02 935.60 191.02
13.59 936.50 191.23
16.16 937.40 191.43
18.80 941.00 192.25
21.48 945.50 193.27
24.19 950.00 194.29
-79.50 949.10 191.42
-76.59 945.50 190.62
-73.78 942.80 190.02
-70.90 939.20 189.22
-68.05 935.60 188.41
-65.08 930.20 187.21
-62.21 925.70 186.21
-59.63 924.80 186.01
-56.99 923.00 185.61
-54.42 922.10 185.41
-51.74 919.40 184.81
-49.24 919.40 184.82
-46.74 919.40 184.82
-44.24 919.40 184.83
-41.69 918.50 184.63
-39.23 919.40 184.83
-36.73 919.40 184.84
-34.19 918.50 184.64
-31.63 916.70 184.24
-29.13 916.70 184.24
-26.67 917.60 184.44
-24.20 918.50 184.65
-21.70 918.50 184.65
-19.22 919.40 184.85
-16.72 919.40 184.85
-14.25 921.20 185.26
-11.75 922.10 185.46
-9.26 923.90 185.87
-6.74 923.90 185.87
-4.23 924.80 186.07
-1.71 925.70 186.27
0.81 927.50 186.67
3.35 930.20 187.28
5.89 931.10 187.48
8.46 934.70 188.29
11.01 934.70 188.29
13.59 936.50 188.69
16.18 938.30 189.09
18.82 941.90 189.90
21.48 945.50 190.70
24.16 949.10 191.51
-76.76 947.30 188.45
-73.78 942.80 187.46
-70.83 938.30 186.47
-67.91 933.80 185.48
-64.95 928.40 184.29
-62.29 926.60 183.90
-59.70 925.70 183.71
-57.12 924.80 183.51
-54.48 923.00 183.12
-51.80 920.30 182.53
-49.24 919.40 182.33
-46.69 918.50 182.14
-44.19 918.50 182.14
-41.65 917.60 181.94
-39.19 918.50 182.15
-36.70 918.50 182.15
-34.20 918.50 182.15
-31.66 917.60 181.96
-29.13 916.70 181.76
-26.70 918.50 182.16
-24.20 918.50 182.16
-21.72 919.40 182.36
-19.22 919.40 182.37
-16.74 920.30 182.57
-14.25 921.20 182.77
-11.75 922.10 182.97
-9.26 923.90 183.37
-6.74 923.90 183.37
-4.23 924.80 183.57
-1.71 925.70 183.77
0.81 927.50 184.16
3.35 931.10 184.96
5.90 932.00 185.16
8.46 934.70 185.75
11.01 934.70 185.75
13.61 937.40 186.35
16.21 940.10 186.95
18.82 941.90 187.34
21.50 946.40 188.34
24.19 950.00 189.13
-76.92 949.10 186.27
-73.87 943.70 185.10
-70.84 938.30 183.93
-67.92 933.80 182.95
-65.02 929.30 181.97
-62.29 926.60 181.39
-59.64 924.80 181.00
-57.06 923.90 180.81
-54.43 922.10 180.42
-51.86 921.20 180.23
-49.25 919.40 179.84
-46.75 919.40 179.85
-44.20 918.50 179.65
-41.65 917.60 179.46
-39.15 917.60 179.47
-36.74 919.40 179.86
-34.24 919.40 179.86
-31.70 918.50 179.67
-29.10 915.80 179.08
-26.64 916.70 179.28
-24.17 917.60 179.48
-21.70 918.50 179.68
-19.20 918.50 179.68
-16.72 919.40 179.88
-14.23 920.30 180.08
-11.74 921.20 180.27
-9.24 922.10 180.47
-6.74 923.90 180.87
-4.24 925.70 181.26
-1.72 927.50 181.65
0.81 929.30 182.04
3.35 932.00 182.63
5.90 932.90 182.83
8.45 933.80 183.02
11.03 935.60 183.42
13.62 938.30 184.00
16.23 941.00 184.59
18.84 942.80 184.98
21.53 947.30 185.96
-73.95 944.60 182.73
-70.84 938.30 181.38
-68.00 934.70 180.61
-65.17 931.10 179.84
-62.43 928.40 179.27
-59.71 925.70 178.69
-57.06 923.90 178.31
-54.37 921.20 177.73
-51.87 921.20 177.74
-49.25 919.40 177.36
-46.80 920.30 177.55
-44.20 918.50 177.17
-41.70 918.50 177.17
-39.20 918.50 177.18
-36.78 920.30 177.57
-34.24 919.40 177.38
-31.74 919.40 177.38
-29.14 916.70 176.80
-26.64 916.70 176.80
-24.12 915.80 176.61
-21.68 917.60 177.00
-19.16 916.70 176.81
-16.72 919.40 177.39
-14.22 919.40 177.39
-11.75 922.10 177.97
-9.25 923.00 178.17
-6.75 924.80 178.56
-4.23 923.90 178.36
-1.72 927.50 179.14
0.81 929.30 179.53
3.36 932.90 180.30
5.91 933.80 180.49
8.47 935.60 180.88
11.05 937.40 181.27
13.65 940.10 181.85
16.23 941.00 182.04
18.88 944.60 182.81
21.58 949.10 183.78
-74.03 945.50 180.36
-70.93 939.20 179.03
-68.00 934.70 178.08
-65.17 931.10 177.32
-62.37 927.50 176.56
-59.65 924.80 176.00
-57.07 923.90 175.81
-54.44 922.10 175.43
-51.87 921.20 175.25
-49.20 918.50 174.68
-46.65 917.60 174.49
-44.11 916.70 174.30
-41.70 918.50 174.69
-39.25 919.40 174.88
-36.78 920.30 175.08
-34.20 918.50 174.70
-31.74 919.40 174.89
-29.14 916.70 174.32
-26.62 915.80 174.13
-24.10 914.90 173.94
-21.66 916.70 174.33
-19.18 917.60 174.52
-16.72 919.40 174.90
-14.23 920.30 175.10
-11.75 922.10 175.48
-9.25 923.00 175.67
-6.75 924.80 176.05
-4.24 925.70 176.24
-1.72 928.40 176.82
0.81 930.20 177.20
3.36 933.80 177.96
5.91 933.80 177.96
8.47 935.60 178.34
11.05 937.40 178.72
13.65 940.10 179.30
16.25 941.90 179.68
18.90 945.50 180.44
-74.20 947.30 178.17
-71.08 941.00 176.86
-68.15 936.50 175.92
-65.25 932.00 174.99
-62.44 928.40 174.24
-59.72 925.70 173.68
-57.20 925.70 173.68
-54.56 923.90 173.31
-51.87 921.20 172.75
-49.26 919.40 172.38
-46.71 918.50 172.19
-44.21 918.50 172.20
-41.75 919.40 172.39
-39.25 919.40 172.39
-36.75 919.40 172.40
-34.25 919.40 172.40
-31.74 919.40 172.40
-29.18 917.60 172.03
-26.68 917.60 172.03
-24.15 916.70 171.84
-21.68 917.60 172.03
-19.18 917.60 172.04
-16.76 921.20 172.79
-14.27 922.10 172.98
-11.77 923.00 173.17
-9.26 923.90 173.36
-6.75 924.80 173.55
-4.24 926.60 173.92
-1.72 928.40 174.30
0.81 931.10 174.87
3.36 933.80 175.43
5.92 935.60 175.81
8.48 936.50 175.99
11.08 939.20 176.56
13.68 941.90 177.12
16.31 944.60 177.68
18.95 947.30 178.25
-74.28 948.20 175.78
-71.32 943.70 174.86
-68.30 938.30 173.75
-65.39 933.80 172.83
-62.51 929.30 171.91
-59.85 927.50 171.54
-57.20 925.70 171.17
-54.62 924.80 170.99
-51.88 921.20 170.26
-49.32 920.30 170.07
-46.76 919.40 169.89
-44.36 921.20 170.27
-41.80 920.30 170.09
-39.30 920.30 170.09
-36.71 918.50 169.72
-34.21 918.50 169.72
-31.64 916.70 169.36
-29.15 916.70 169.36
-26.68 917.60 169.55
-24.21 918.50 169.73
-21.73 919.40 169.92
-19.21 918.50 169.74
-16.76 921.20 170.30
-14.25 921.20 170.30
-11.76 922.10 170.48
-9.26 923.90 170.86
-6.77 926.60 171.41
-4.26 929.30 171.97
-1.72 930.20 172.16
0.81 931.10 172.34
3.36 932.00 172.53
5.91 933.80 172.90
8.47 934.70 173.08
11.06 938.30 173.82
13.68 941.90 174.56
16.32 945.50 175.30
18.97 948.20 175.86
-71.47 945.50 172.66
-68.53 941.00 171.75
-65.54 935.60 170.66
-62.65 931.10 169.75
-59.99 929.30 169.39
-57.27 926.60 168.85
-54.69 925.70 168.67
-52.00 923.00 168.13
-49.48 923.00 168.13
-46.97 923.00 168.13
-44.50 923.90 168.32
-41.85 921.20 167.78
-39.26 919.40 167.41
-36.75 919.40 167.42
-34.25 919.40 167.42
-31.68 917.60 167.06
-29.18 917.60 167.06
-26.71 918.50 167.24
-24.24 919.40 167.43
-21.80 922.10 167.98
-19.27 921.20 167.80
-16.76 921.20 167.80
-14.24 920.30 167.62
-11.74 921.20 167.80
-9.26 923.90 168.35
-6.78 928.40 169.27
-4.27 931.10 169.81
-1.73 931.10 169.82
0.81 932.00 170.00
3.36 933.80 170.36
5.92 935.60 170.73
8.49 937.40 171.09
11.09 940.10 171.64
13.73 944.60 172.55
16.38 948.20 173.28
-71.55 946.40 170.27
-68.61 941.90 169.38
-65.69 937.40 168.48
-62.79 932.90 167.59
-60.12 931.10 167.23
-57.40 928.40 166.70
-54.75 926.60 166.34
-52.11 924.80 165.99
-49.59 924.80 165.99
-47.13 925.70 166.17
-44.56 924.80 166.00
-41.95 923.00 165.64
-39.35 921.20 165.28
-36.76 919.40 164.93
-34.22 918.50 164.75
-31.75 919.40 164.93
-29.25 919.40 164.93
-26.80 921.20 165.30
-24.35 923.00 165.66
-21.90 925.70 166.20
-19.36 924.80 166.02
-16.82 923.90 165.84
-14.25 921.20 165.31
-11.77 923.00 165.67
-9.28 924.80 166.03
-6.79 929.30 166.93
-4.26 930.20 167.11
-1.73 932.00 167.47
0.81 932.90 167.65
3.37 935.60 168.19
5.93 936.50 168.37
8.50 938.30 168.73
11.11 941.90 169.45
13.76 946.40 170.35
16.41 950.00 171.07
-71.71 948.20 168.05
-68.76 943.70 167.17
-65.83 939.20 166.29
-63.07 936.50 165.77
-60.32 933.80 165.24
-57.59 931.10 164.71
-54.81 927.50 164.01
-52.29 927.50 164.01
-49.71 926.60 163.84
-47.18 926.60 163.84
-44.56 924.80 163.49
-41.99 923.90 163.32
-39.39 922.10 162.96
-36.84 921.20 162.79
-34.33 921.20 162.79
-31.89 923.00 163.15
-29.34 922.10 162.98
-26.86 923.00 163.16
-24.35 923.00 163.16
-21.93 926.60 163.87
-19.38 925.70 163.69
-16.87 926.60 163.87
-14.30 923.90 163.34
-11.81 925.70 163.70
-9.29 925.70 163.70
-6.79 929.30 164.41
-4.27 931.10 164.76
-1.73 934.70 165.47
0.82 934.70 165.47
3.38 937.40 166.00
5.94 938.30 166.18
8.54 941.90 166.89
11.16 945.50 167.60
13.82 950.00 168.48
-68.98 946.40 165.13
-66.12 942.80 164.44
-63.34 940.10 163.92
-60.58 937.40 163.40
-57.84 934.70 162.88
-55.00 930.20 162.01
-52.40 929.30 161.84
-49.82 928.40 161.67
-47.24 927.50 161.50
-44.66 926.60 161.33
-42.09 925.70 161.16
-39.52 924.80 160.99
-36.96 923.90 160.82
-34.45 923.90 160.82
-31.93 923.90 160.82
-29.41 923.90 160.83
-26.92 924.80 161.00
-24.40 924.80 161.00
-21.91 925.70 161.18
-19.38 925.70 161.18
-16.89 927.50 161.53
-14.37 927.50 161.53
-11.86 929.30 161.88
-9.32 928.40 161.71
-6.80 930.20 162.06
-4.27 931.10 162.24
-1.74 935.60 163.11
0.82 936.50 163.28
3.38 937.40 163.46
5.96 940.10 163.98
8.55 942.80 164.51
11.19 947.30 165.38
-69.28 950.00 163.25
-66.40 946.40 162.56
-63.55 942.80 161.88
-60.78 940.10 161.37
-57.97 936.50 160.69
-55.24 933.80 160.18
-52.58 932.00 159.84
-49.98 931.10 159.67
-47.29 928.40 159.16
-44.71 927.50 158.99
-42.14 926.60 158.82
-39.57 925.70 158.65
-37.01 924.80 158.48
-34.49 924.80 158.49
-32.00 925.70 158.66
-29.45 924.80 158.49
-26.95 925.70 158.67
-24.40 924.80 158.50
-21.93 926.60 158.84
-19.38 925.70 158.67
-16.91 928.40 159.19
-14.41 930.20 159.53
-11.89 931.10 159.71
-9.34 930.20 159.54
-6.81 931.10 159.71
-4.29 934.70 160.40
-1.74 937.40 160.91
0.82 940.10 161.43
3.39 941.00 161.60
5.98 943.70 162.11
8.59 946.40 162.63
-66.62 949.10 160.50
-63.76 945.50 159.83
-60.98 942.80 159.32
-58.22 940.10 158.82
-55.54 938.30 158.49
-52.86 936.50 158.15
-50.25 935.60 157.99
-47.50 932.00 157.32
-44.86 930.20 156.98
-42.23 928.40 156.65
-39.66 927.50 156.48
-37.13 927.50 156.48
-34.56 926.60 156.32
-32.00 925.70 156.15
-29.54 927.50 156.49
-27.07 929.30 156.83
-24.59 931.10 157.17
-22.03 930.20 157.00
-19.45 928.40 156.67
-16.93 929.30 156.84
-14.43 931.10 157.18
-11.92 932.90 157.52
-9.38 933.80 157.69
-6.83 933.80 157.69
-4.30 936.50 158.20
-1.74 939.20 158.70
0.82 942.80 159.38
3.41 944.60 159.72
6.01 948.20 160.39
8.63 950.00 160.73
-64.03 949.10 157.92
-61.24 946.40 157.43
-58.41 942.80 156.77
-55.78 941.90 156.60
-53.09 940.10 156.27
-50.53 940.10 156.28
-47.76 936.50 155.62
-45.01 932.90 154.95
-42.37 931.10 154.62
-39.75 929.30 154.30
-37.13 927.50 153.97
-34.60 927.50 153.97
-32.07 927.50 153.97
-29.61 929.30 154.31
-27.13 931.10 154.64
-24.70 934.70 155.31
-22.15 934.70 155.31
-19.55 932.90 154.98
-16.99 932.00 154.81
-14.45 932.00 154.82
-11.93 933.80 155.15
-9.40 935.60 155.48
-6.86 937.40 155.82
-4.31 939.20 156.15
-1.75 941.90 156.65
0.83 945.50 157.32
3.42 948.20 157.81
-58.79 948.20 155.18
-56.08 946.40 154.86
-53.32 943.70 154.37
-50.69 942.80 154.21
-47.97 940.10 153.73
-45.25 937.40 153.24
-42.56 934.70 152.75
-39.92 932.90 152.43
-37.26 930.20 151.94
-34.68 929.30 151.78
-32.11 928.40 151.62
-29.64 930.20 151.95
-27.16 932.00 152.28
-24.73 935.60 152.93
-22.17 935.60 152.93
-19.62 935.60 152.94
-17.03 933.80 152.61
-14.49 934.70 152.77
-11.97 936.50 153.10
-9.43 938.30 153.43
-6.89 941.00 153.92
-4.32 941.90 154.09
-1.76 945.50 154.74
0.83 948.20 155.23
-56.32 950.00 152.93
-53.55 947.30 152.45
-50.86 945.50 152.13
-48.17 943.70 151.81
-45.50 941.90 151.50
-42.83 940.10 151.18
-40.10 936.50 150.54
-37.42 933.80 150.06
-34.83 932.90 149.90
-32.32 933.80 150.06
-29.77 933.80 150.06
-27.20 932.90 149.90
-24.70 934.70 150.23
-22.20 936.50 150.55
-19.68 938.30 150.88
-17.10 937.40 150.72
-14.56 938.30 150.88
-11.99 938.30 150.88
-9.45 940.10 151.20
-6.91 942.80 151.69
-4.33 943.70 151.85
-1.76 947.30 152.49
0.83 950.00 152.97
-53.61 948.20 150.03
-50.97 947.30 149.88
-48.38 947.30 149.88
-45.74 946.40 149.72
-43.02 943.70 149.25
-40.27 940.10 148.62
-37.66 939.20 148.47
-35.02 937.40 148.15
-32.46 937.40 148.16
-29.90 937.40 148.16
-27.31 936.50 148.00
-24.76 936.50 148.00
-22.22 937.40 148.16
-19.71 939.20 148.48
-17.16 940.10 148.64
-14.59 940.10 148.64
-12.02 940.10 148.64
-9.46 941.00 148.80
-6.91 943.70 149.28
-4.35 946.40 149.75
-1.77 949.10 150.23
-45.94 950.00 147.77
-43.25 948.20 147.46
-40.53 945.50 147.00
-37.95 945.50 147.00
-35.25 942.80 146.54
-32.67 942.80 146.54
-30.03 941.00 146.23
-27.49 941.90 146.39
-24.89 941.00 146.24
-22.32 941.00 146.24
-19.75 941.00 146.24
-17.21 942.80 146.55
-14.64 942.80 146.55
-12.07 943.70 146.71
-9.49 943.70 146.71
-6.94 946.40 147.18
-4.36 949.10 147.64
-40.75 950.00 145.19
-38.11 949.10 145.04
-35.44 947.30 144.74
-32.78 945.50 144.43
-30.20 945.50 144.43
-27.61 945.50 144.44
-25.00 944.60 144.29
-22.39 943.70 144.13
-19.79 942.80 143.98
-17.27 945.50 144.44
-14.70 946.40 144.60
-12.14 948.20 144.90
-9.54 948.20 144.90
-6.97 950.00 145.21
-32.96 950.00 142.61
-30.33 949.10 142.46
-27.70 948.20 142.31
-25.08 947.30 142.16
-22.44 945.50 141.87
-19.88 946.40 142.02
-17.36 950.00 142.62
