ply
format ascii 1.0
comment generated by: python
element vertex 2122
property float x
property float y
property float z
end_header
19.91 998.00 271.66
22.52 993.00 270.30
25.12 989.00 269.21
27.73 986.00 268.39
30.45 987.00 268.66
33.18 988.00 268.93
36.05 993.00 270.29
39.03 1000.00 272.19
-26.39 1000.00 269.50
-23.64 999.00 269.23
-20.87 997.00 268.70
-18.14 996.00 268.43
-15.41 995.00 268.16
-12.69 995.00 268.16
-9.98 995.00 268.16
-7.28 997.00 268.70
-4.57 999.00 269.24
-1.85 1000.00 269.51
0.87 999.00 269.24
3.60 1000.00 269.51
6.32 999.00 269.24
9.01 996.00 268.43
11.68 992.00 267.35
14.33 988.00 266.27
16.97 985.00 265.46
19.61 983.00 264.92
22.18 978.00 263.57
24.82 977.00 263.30
27.46 976.00 263.03
30.15 977.00 263.30
32.88 979.00 263.83
35.73 984.00 265.18
38.72 992.00 267.33
-37.29 1000.00 266.79
-34.36 994.00 265.19
-31.43 987.00 263.32
-28.62 983.00 262.26
-25.86 980.00 261.46
-23.17 979.00 261.20
-20.48 978.00 260.93
-17.81 978.00 260.93
-15.16 979.00 261.20
-12.48 978.00 260.94
-9.81 978.00 260.94
-7.15 979.00 261.20
-4.50 982.00 262.01
-1.82 983.00 262.27
0.86 985.00 262.81
3.55 987.00 263.34
6.24 987.00 263.34
8.93 987.00 263.34
11.58 983.00 262.27
14.23 981.00 261.74
16.82 976.00 260.40
19.42 973.00 259.60
21.98 969.00 258.53
24.62 969.00 258.53
27.26 969.00 258.53
29.96 971.00 259.06
32.64 972.00 259.32
35.47 977.00 260.65
38.41 984.00 262.52
41.64 997.00 265.98
-45.43 999.00 263.81
-42.36 991.00 261.70
-39.42 985.00 260.12
-36.51 979.00 258.54
-33.70 975.00 257.48
-30.86 969.00 255.90
-28.10 965.00 254.85
-25.44 964.00 254.59
-22.74 961.00 253.80
-20.12 961.00 253.80
-17.50 961.00 253.80
-14.93 964.00 254.59
-12.31 965.00 254.86
-9.68 965.00 254.86
-7.06 966.00 255.13
-4.43 968.00 255.65
-1.80 972.00 256.71
0.85 974.00 257.24
3.51 976.00 257.77
6.17 975.00 257.50
8.84 977.00 258.03
11.48 975.00 257.50
14.13 974.00 257.24
16.71 970.00 256.18
19.28 966.00 255.12
21.82 962.00 254.06
24.44 962.00 254.06
27.09 963.00 254.32
29.81 966.00 255.11
32.48 967.00 255.37
35.22 970.00 256.16
38.10 976.00 257.74
41.22 987.00 260.64
-50.93 1000.00 261.36
-47.67 989.00 258.49
-44.47 978.00 255.62
-41.51 971.00 253.79
-38.66 966.00 252.49
-35.88 962.00 251.45
-33.15 959.00 250.67
-30.41 955.00 249.62
-27.78 954.00 249.37
-25.15 953.00 249.11
-22.53 952.00 248.85
-19.91 951.00 248.59
-17.32 951.00 248.59
-14.76 953.00 249.11
-12.17 954.00 249.38
-9.58 955.00 249.64
-6.99 957.00 250.16
-4.39 959.00 250.69
-1.78 962.00 251.47
0.84 964.00 251.99
3.47 965.00 252.25
6.10 964.00 251.99
8.74 966.00 252.51
11.39 967.00 252.77
14.04 968.00 253.03
16.63 965.00 252.25
19.18 961.00 251.20
21.76 959.00 250.68
24.37 959.00 250.68
27.01 960.00 250.93
29.66 961.00 251.19
32.31 962.00 251.45
35.01 964.00 251.97
37.75 967.00 252.75
40.72 975.00 254.84
43.96 988.00 258.23
47.22 1000.00 261.37
-56.38 1000.00 258.65
-53.12 990.00 256.07
-49.91 980.00 253.48
-46.81 971.00 251.16
-43.75 962.00 248.84
-40.87 956.00 247.29
-38.15 953.00 246.52
-35.44 950.00 245.74
-32.74 947.00 244.97
-30.13 946.00 244.71
-27.52 945.00 244.46
-24.97 946.00 244.72
-22.37 945.00 244.46
-19.79 945.00 244.46
-17.21 945.00 244.47
-14.65 946.00 244.73
-12.07 946.00 244.73
-9.50 947.00 244.99
-6.94 949.00 245.51
-4.36 951.00 246.02
-1.77 955.00 247.06
0.83 955.00 247.06
3.44 956.00 247.32
6.04 955.00 247.06
8.66 957.00 247.57
11.30 959.00 248.09
13.94 961.00 248.61
16.56 961.00 248.61
19.18 961.00 248.60
21.73 958.00 247.83
24.32 957.00 247.57
26.93 957.00 247.56
29.57 958.00 247.82
32.22 959.00 248.08
34.90 961.00 248.59
37.60 963.00 249.10
40.52 970.00 250.91
43.65 981.00 253.75
46.85 992.00 256.59
49.75 996.00 257.62
-58.58 991.00 253.64
-55.32 981.00 251.08
-52.16 972.00 248.78
-49.10 964.00 246.74
-46.18 958.00 245.21
-43.30 952.00 243.68
-40.53 948.00 242.66
-37.83 945.00 241.89
-35.14 942.00 241.13
-32.54 941.00 240.87
-29.94 940.00 240.62
-27.38 940.00 240.62
-24.81 940.00 240.63
-22.27 941.00 240.88
-19.71 941.00 240.89
-17.14 941.00 240.89
-14.59 942.00 241.14
-12.02 942.00 241.15
-9.45 942.00 241.15
-6.90 944.00 241.66
-4.33 945.00 241.92
-1.76 948.00 242.68
0.83 948.00 242.68
3.42 951.00 243.45
6.02 952.00 243.71
8.63 953.00 243.96
11.24 954.00 244.22
13.87 956.00 244.73
16.51 958.00 245.24
19.12 958.00 245.24
21.69 956.00 244.72
24.27 955.00 244.47
26.85 954.00 244.21
29.48 955.00 244.46
32.12 956.00 244.71
34.80 958.00 245.22
37.49 960.00 245.73
40.31 965.00 247.01
43.34 974.00 249.31
46.61 987.00 252.63
49.75 996.00 254.93
-64.25 995.00 251.96
-60.85 984.00 249.18
-57.58 974.00 246.65
-54.42 965.00 244.38
-51.41 958.00 242.61
-48.49 952.00 241.09
-45.71 948.00 240.08
-43.03 946.00 239.58
-40.32 943.00 238.83
-37.67 941.00 238.32
-34.99 938.00 237.57
-32.40 937.00 237.32
-29.85 937.00 237.32
-27.29 937.00 237.32
-24.76 938.00 237.58
-22.23 939.00 237.83
-19.65 938.00 237.58
-17.11 939.00 237.84
-14.53 938.00 237.58
-11.99 939.00 237.84
-9.41 938.00 237.59
-6.87 940.00 238.09
-4.31 941.00 238.35
-1.75 943.00 238.85
0.82 945.00 239.36
3.41 948.00 240.12
6.02 951.00 240.88
8.61 951.00 240.88
11.19 950.00 240.62
13.80 951.00 240.88
16.43 953.00 241.38
19.05 954.00 241.63
21.65 954.00 241.63
24.22 953.00 241.38
26.82 953.00 241.37
29.45 954.00 241.63
32.15 957.00 242.38
34.73 956.00 242.13
37.41 958.00 242.63
40.19 962.00 243.64
43.17 970.00 245.66
46.29 980.00 248.19
49.61 993.00 251.48
-66.76 992.00 248.51
-63.41 982.00 246.01
-60.12 972.00 243.51
-56.82 961.00 240.76
-53.75 953.00 238.76
-50.88 948.00 237.51
-48.09 944.00 236.51
-45.37 941.00 235.77
-42.76 940.00 235.52
-40.16 939.00 235.27
-37.56 938.00 235.03
-34.92 936.00 234.53
-32.34 935.00 234.28
-29.79 935.00 234.28
-27.24 935.00 234.29
-24.66 934.00 234.04
-22.14 935.00 234.29
-19.57 934.00 234.04
-17.04 935.00 234.29
-14.49 935.00 234.29
-11.96 937.00 234.80
-9.41 937.00 234.80
-6.86 938.00 235.05
-4.29 937.00 234.80
-1.74 939.00 235.30
0.82 941.00 235.80
3.40 945.00 236.80
6.00 948.00 237.56
8.58 948.00 237.55
11.16 947.00 237.30
13.74 947.00 237.30
16.36 949.00 237.80
18.97 950.00 238.05
21.58 951.00 238.30
24.20 952.00 238.55
26.83 953.00 238.80
29.45 954.00 239.04
32.16 957.00 239.79
34.77 957.00 239.79
37.42 958.00 240.04
40.20 962.00 241.04
43.04 967.00 242.29
46.01 974.00 244.04
49.16 984.00 246.54
52.58 998.00 250.04
-69.26 989.00 245.08
-65.82 978.00 242.36
-62.51 968.00 239.88
-59.26 958.00 237.41
-56.17 950.00 235.43
-53.24 944.00 233.95
-50.51 941.00 233.21
-47.84 939.00 232.72
-45.18 937.00 232.23
-42.54 935.00 231.74
-39.99 935.00 231.74
-37.44 935.00 231.74
-34.89 935.00 231.75
-32.30 934.00 231.50
-29.73 933.00 231.26
-27.18 933.00 231.26
-24.64 933.00 231.26
-22.09 933.00 231.26
-19.53 932.00 231.02
-17.00 933.00 231.27
-14.46 933.00 231.27
-11.95 936.00 232.01
-9.39 935.00 231.77
-6.84 935.00 231.77
-4.28 934.00 231.52
-1.74 936.00 232.02
0.82 938.00 232.51
3.39 941.00 233.26
5.97 944.00 234.00
8.56 945.00 234.25
11.15 946.00 234.49
13.71 945.00 234.24
16.31 946.00 234.49
18.93 948.00 234.99
21.56 950.00 235.48
24.18 951.00 235.72
26.83 953.00 236.22
29.49 955.00 236.71
32.16 957.00 237.20
34.77 957.00 237.20
37.46 959.00 237.69
40.24 963.00 238.68
43.00 966.00 239.42
45.87 971.00 240.66
48.87 978.00 242.39
52.17 990.00 245.36
-75.49 1000.00 245.08
-71.82 987.00 241.90
-68.36 976.00 239.21
-65.02 966.00 236.77
-61.81 957.00 234.57
-58.70 949.00 232.61
-55.76 943.00 231.15
-52.97 939.00 230.17
-50.24 936.00 229.44
-47.64 935.00 229.20
-45.00 933.00 228.71
-42.41 932.00 228.47
-39.86 932.00 228.48
-37.32 932.00 228.48
-34.82 933.00 228.73
-32.24 932.00 228.49
-29.66 931.00 228.24
-27.12 931.00 228.25
-24.59 931.00 228.25
-22.05 931.00 228.25
-19.48 930.00 228.01
-16.97 931.00 228.25
-14.44 932.00 228.50
-11.92 934.00 228.99
-9.38 934.00 228.99
-6.82 933.00 228.75
-4.27 931.00 228.26
-1.73 933.00 228.75
0.82 935.00 229.24
3.38 938.00 229.97
5.95 940.00 230.46
8.53 942.00 230.95
11.13 944.00 231.44
13.70 944.00 231.44
16.31 946.00 231.93
18.91 947.00 232.17
21.54 949.00 232.66
24.13 949.00 232.66
26.77 951.00 233.15
29.46 954.00 233.88
32.13 956.00 234.37
34.81 958.00 234.86
37.46 959.00 235.10
40.29 964.00 236.32
43.00 966.00 236.81
45.83 970.00 237.78
48.77 976.00 239.25
52.07 988.00 242.19
-78.06 998.00 241.89
-74.29 984.00 238.50
-70.80 973.00 235.84
-67.52 964.00 233.66
-64.29 955.00 231.49
-61.17 947.00 229.55
-58.28 942.00 228.35
-55.47 938.00 227.38
-52.74 935.00 226.66
-50.09 933.00 226.18
-47.54 933.00 226.18
-44.95 932.00 225.95
-42.36 931.00 225.71
-39.74 929.00 225.23
-37.25 930.00 225.47
-34.75 931.00 225.72
-32.17 930.00 225.48
-29.57 928.00 225.00
-27.04 928.00 225.00
-24.51 928.00 225.00
-22.02 930.00 225.49
-19.47 929.00 225.25
-16.95 930.00 225.49
-14.43 931.00 225.74
-11.91 933.00 226.22
-9.37 933.00 226.22
-6.81 932.00 225.98
-4.26 930.00 225.50
-1.73 932.00 225.98
0.81 933.00 226.22
3.37 936.00 226.95
5.94 939.00 227.68
8.52 941.00 228.16
11.10 942.00 228.40
13.67 942.00 228.40
16.29 945.00 229.13
18.89 946.00 229.37
21.52 948.00 229.85
24.11 948.00 229.85
26.75 950.00 230.33
29.46 954.00 231.30
32.20 958.00 232.27
34.85 959.00 232.51
37.46 959.00 232.50
40.21 962.00 233.23
42.96 965.00 233.95
45.83 970.00 235.16
48.78 976.00 236.61
52.02 987.00 239.27
-77.13 986.00 236.31
-73.54 974.00 233.44
-70.01 962.00 230.57
-66.76 953.00 228.42
-63.69 946.00 226.75
-60.78 941.00 225.55
-58.03 938.00 224.84
-55.30 935.00 224.12
-52.58 932.00 223.41
-49.93 930.00 222.94
-47.39 930.00 222.94
-44.86 930.00 222.94
-42.28 929.00 222.71
-39.74 929.00 222.71
-37.17 928.00 222.47
-34.60 927.00 222.24
-32.04 926.00 222.00
-29.51 926.00 222.00
-27.01 927.00 222.25
-24.51 928.00 222.49
-22.03 930.00 222.97
-19.47 929.00 222.73
-16.93 929.00 222.73
-14.40 929.00 222.74
-11.89 931.00 223.22
-9.35 931.00 223.22
-6.81 931.00 223.22
-4.27 931.00 223.22
-1.73 931.00 223.22
0.81 932.00 223.46
3.36 934.00 223.94
5.94 938.00 224.90
8.52 940.00 225.38
11.08 940.00 225.37
13.66 941.00 225.61
16.28 944.00 226.33
18.87 945.00 226.57
21.48 946.00 226.81
24.08 947.00 227.04
26.75 950.00 227.76
29.47 954.00 228.72
32.24 959.00 229.91
34.92 961.00 230.39
37.55 961.00 230.39
40.21 962.00 230.62
43.01 966.00 231.58
45.88 971.00 232.77
48.78 976.00 233.97
52.02 987.00 236.60
-80.31 992.00 235.05
-76.35 976.00 231.27
-72.86 965.00 228.67
-69.36 953.00 225.83
-66.20 945.00 223.94
-63.22 939.00 222.53
-60.47 936.00 221.82
-57.85 935.00 221.59
-55.13 932.00 220.88
-52.47 930.00 220.41
-49.88 929.00 220.18
-47.30 928.00 219.95
-44.72 927.00 219.71
-42.14 926.00 219.48
-39.66 927.00 219.72
-37.13 927.00 219.73
-34.57 926.00 219.49
-32.00 925.00 219.26
-29.48 925.00 219.26
-26.96 925.00 219.26
-24.49 927.00 219.74
-22.00 929.00 220.22
-19.45 928.00 219.98
-16.92 928.00 219.98
-14.38 928.00 219.98
-11.86 929.00 220.22
-9.33 929.00 220.22
-6.80 930.00 220.46
-4.27 931.00 220.70
-1.73 931.00 220.70
0.81 932.00 220.94
3.36 934.00 221.41
5.93 937.00 222.12
8.51 939.00 222.59
11.07 939.00 222.59
13.65 940.00 222.83
16.25 942.00 223.30
18.86 944.00 223.77
21.45 945.00 224.01
24.14 949.00 224.96
26.81 952.00 225.66
29.53 956.00 226.61
32.27 960.00 227.55
34.93 961.00 227.79
37.63 963.00 228.26
40.34 965.00 228.73
43.15 969.00 229.67
45.98 973.00 230.62
48.78 976.00 231.33
52.18 990.00 234.64
-83.52 998.00 233.77
-79.51 982.00 230.03
-75.66 967.00 226.52
-72.19 956.00 223.95
-68.86 946.00 221.61
-65.79 939.00 219.98
-62.96 935.00 219.05
-60.21 932.00 218.35
-57.67 932.00 218.35
-55.01 930.00 217.89
-52.36 928.00 217.43
-49.78 927.00 217.20
-47.20 926.00 216.97
-44.62 925.00 216.74
-42.10 925.00 216.74
-39.62 926.00 216.98
-37.09 926.00 216.98
-34.57 926.00 216.98
-32.01 925.00 216.75
-29.48 925.00 216.76
-26.99 926.00 216.99
-24.49 927.00 217.23
-21.96 927.00 217.23
-19.41 926.00 217.00
-16.90 927.00 217.23
-14.37 927.00 217.24
-11.85 928.00 217.47
-9.32 928.00 217.47
-6.79 929.00 217.71
-4.26 930.00 217.94
-1.73 930.00 217.94
0.81 932.00 218.41
3.36 933.00 218.65
5.93 936.00 219.35
8.50 938.00 219.82
11.07 939.00 220.05
13.63 939.00 220.05
16.23 941.00 220.52
18.84 943.00 220.98
21.46 945.00 221.45
24.11 948.00 222.15
26.81 952.00 223.09
29.53 956.00 224.02
32.28 960.00 224.96
34.97 962.00 225.42
37.75 966.00 226.36
40.55 970.00 227.29
43.33 973.00 227.99
46.08 975.00 228.45
49.09 982.00 230.09
52.66 999.00 234.07
-82.61 987.00 228.52
-78.70 972.00 225.05
-74.96 958.00 221.82
-71.52 947.00 219.28
-68.35 939.00 217.43
-65.51 935.00 216.51
-62.76 932.00 215.82
-60.15 931.00 215.59
-57.62 931.00 215.60
-55.02 930.00 215.37
-52.31 927.00 214.68
-49.68 925.00 214.22
-47.05 923.00 213.76
-44.48 922.00 213.54
-41.97 922.00 213.54
-39.54 924.00 214.01
-37.10 926.00 214.47
-34.57 926.00 214.48
-32.04 926.00 214.48
-29.52 926.00 214.48
-26.96 925.00 214.25
-24.38 923.00 213.79
-21.87 923.00 213.79
-19.37 924.00 214.03
-16.88 926.00 214.49
-14.36 926.00 214.49
-11.84 927.00 214.73
-9.32 928.00 214.96
-6.78 927.00 214.73
-4.26 929.00 215.19
-1.73 930.00 215.42
0.81 931.00 215.66
3.36 933.00 216.12
5.92 935.00 216.58
8.49 937.00 217.04
11.06 938.00 217.27
13.63 939.00 217.51
16.23 941.00 217.97
18.86 944.00 218.66
21.48 946.00 219.12
24.16 950.00 220.05
26.87 954.00 220.97
29.57 957.00 221.66
32.31 961.00 222.59
35.01 963.00 223.05
37.83 968.00 224.20
40.68 973.00 225.36
43.51 977.00 226.28
46.32 980.00 226.97
49.44 989.00 229.05
-85.82 993.00 227.21
-81.78 977.00 223.56
-78.06 964.00 220.59
-74.42 951.00 217.62
-71.15 942.00 215.57
-68.14 936.00 214.20
-65.38 933.00 213.52
-62.70 931.00 213.07
-60.16 931.00 213.07
-57.62 931.00 213.08
-54.96 929.00 212.62
-52.20 925.00 211.71
-49.63 924.00 211.49
-47.11 924.00 211.49
-44.54 923.00 211.27
-42.02 923.00 211.27
-39.50 923.00 211.27
-37.02 924.00 211.51
-34.46 923.00 211.28
-32.01 925.00 211.74
-29.49 925.00 211.74
-26.96 925.00 211.75
-24.36 922.00 211.06
-21.82 921.00 210.84
-19.31 921.00 210.84
-16.83 923.00 211.30
-14.36 926.00 211.99
-11.84 927.00 212.22
-9.32 928.00 212.45
-6.78 927.00 212.22
-4.25 927.00 212.22
-1.72 928.00 212.45
0.81 930.00 212.90
3.36 932.00 213.36
5.91 934.00 213.82
8.47 935.00 214.05
11.05 937.00 214.51
13.62 938.00 214.73
16.23 941.00 215.42
18.84 943.00 215.87
21.46 945.00 216.33
24.12 948.00 217.02
26.82 952.00 217.93
29.54 956.00 218.84
32.28 960.00 219.75
35.01 963.00 220.44
37.87 969.00 221.81
40.68 973.00 222.72
43.61 979.00 224.09
46.56 985.00 225.46
49.95 999.00 228.66
-88.98 998.00 225.64
-84.88 982.00 222.03
-81.03 968.00 218.87
-77.34 955.00 215.94
-74.03 946.00 213.91
-71.00 940.00 212.56
-68.15 936.00 211.66
-65.31 932.00 210.76
-62.70 931.00 210.54
-60.10 930.00 210.32
-57.50 929.00 210.10
-54.85 927.00 209.65
-52.09 923.00 208.75
-49.47 921.00 208.31
-47.01 922.00 208.54
-44.54 923.00 208.77
-41.98 922.00 208.54
-39.42 921.00 208.32
-36.94 922.00 208.55
-34.39 921.00 208.33
-31.91 922.00 208.56
-29.43 923.00 208.79
-26.91 923.00 208.79
-24.34 921.00 208.34
-21.80 920.00 208.11
-19.29 920.00 208.12
-16.79 921.00 208.34
-14.33 924.00 209.02
-11.82 925.00 209.25
-9.31 927.00 209.70
-6.77 926.00 209.48
-4.25 926.00 209.48
-1.72 925.00 209.25
0.81 928.00 209.93
3.35 931.00 210.61
5.91 933.00 211.06
8.45 932.00 210.84
11.04 936.00 211.74
13.62 938.00 212.19
16.23 941.00 212.87
18.82 942.00 213.09
21.44 944.00 213.54
24.12 948.00 214.45
26.82 952.00 215.35
29.54 956.00 216.25
32.32 961.00 217.38
35.09 965.00 218.28
37.95 971.00 219.64
40.77 975.00 220.54
43.74 982.00 222.12
46.90 992.00 224.37
-88.10 988.00 220.70
-84.20 974.00 217.58
-80.45 961.00 214.69
-76.94 950.00 212.24
-73.80 943.00 210.68
-70.93 939.00 209.79
-68.15 936.00 209.13
-65.32 932.00 208.24
-62.71 931.00 208.02
-59.98 928.00 207.36
-57.44 928.00 207.36
-54.74 925.00 206.70
-52.04 922.00 206.03
-49.42 920.00 205.59
-46.91 920.00 205.59
-44.45 921.00 205.82
-41.89 920.00 205.60
-39.34 919.00 205.38
-36.83 919.00 205.38
-34.36 920.00 205.61
-31.85 920.00 205.61
-29.40 922.00 206.06
-26.85 921.00 205.84
-24.31 920.00 205.62
-21.80 920.00 205.62
-19.27 919.00 205.40
-16.80 921.00 205.85
-14.31 923.00 206.30
-11.81 924.00 206.52
-9.29 925.00 206.75
-6.77 925.00 206.75
-4.24 925.00 206.75
-1.72 926.00 206.97
0.81 928.00 207.42
3.35 930.00 207.86
5.90 931.00 208.09
8.44 931.00 208.09
11.04 936.00 209.20
13.64 939.00 209.87
16.25 942.00 210.54
18.80 941.00 210.32
21.42 943.00 210.76
24.09 947.00 211.65
26.79 951.00 212.55
29.51 955.00 213.44
32.32 961.00 214.78
35.20 968.00 216.34
38.11 975.00 217.90
40.90 978.00 218.57
43.88 985.00 220.13
47.14 997.00 222.80
-91.72 998.00 220.23
-87.48 981.00 216.48
-83.68 968.00 213.62
-80.12 957.00 211.20
-76.71 947.00 209.00
-73.73 942.00 207.90
-70.86 938.00 207.03
-68.08 935.00 206.37
-65.25 931.00 205.49
-62.58 929.00 205.06
-59.85 926.00 204.40
-57.26 925.00 204.18
-54.62 923.00 203.75
-51.93 920.00 203.09
-49.32 918.00 202.65
-46.81 918.00 202.66
-44.35 919.00 202.88
-41.80 918.00 202.66
-39.25 917.00 202.45
-36.75 917.00 202.45
-34.28 918.00 202.67
-31.81 919.00 202.90
-29.34 920.00 203.12
-26.83 920.00 203.12
-24.29 919.00 202.90
-21.80 920.00 203.13
-19.29 920.00 203.13
-16.80 921.00 203.35
-14.27 920.00 203.13
-11.76 920.00 203.13
-9.26 922.00 203.58
-6.76 924.00 204.02
-4.25 926.00 204.46
-1.72 928.00 204.90
0.81 928.00 204.90
3.35 929.00 205.12
5.90 931.00 205.56
8.45 932.00 205.78
11.05 937.00 206.89
13.62 938.00 207.11
16.24 941.00 207.77
18.81 941.00 207.77
21.44 944.00 208.43
24.12 948.00 209.31
26.82 952.00 210.19
29.55 956.00 211.07
32.36 962.00 212.39
35.31 971.00 214.38
38.27 979.00 216.14
41.11 983.00 217.02
44.11 990.00 218.56
-91.36 994.00 216.65
-87.13 977.00 212.95
-83.35 964.00 210.12
-79.80 953.00 207.73
-76.63 946.00 206.21
-73.66 941.00 205.13
-70.79 937.00 204.26
-68.02 934.00 203.62
-65.19 930.00 202.75
-62.52 928.00 202.32
-59.86 926.00 201.89
-57.27 925.00 201.68
-54.63 923.00 201.24
-52.05 922.00 201.03
-49.48 921.00 200.82
-46.92 920.00 200.60
-44.31 918.00 200.17
-41.71 916.00 199.74
-39.21 916.00 199.74
-36.67 915.00 199.53
-34.21 916.00 199.75
-31.71 916.00 199.75
-29.28 918.00 200.19
-26.77 918.00 200.19
-24.24 917.00 199.98
-21.76 918.00 200.20
-19.27 919.00 200.42
-16.78 920.00 200.64
-14.25 919.00 200.42
-11.73 918.00 200.20
-9.24 920.00 200.64
-6.76 924.00 201.51
-4.24 925.00 201.73
-1.72 928.00 202.39
0.81 927.00 202.17
3.34 928.00 202.39
5.89 930.00 202.82
8.47 934.00 203.69
11.05 937.00 204.35
13.64 939.00 204.78
16.22 940.00 205.00
18.83 942.00 205.43
21.45 944.00 205.87
24.12 948.00 206.74
26.83 952.00 207.61
29.58 957.00 208.70
32.39 963.00 210.00
35.35 972.00 211.96
38.28 979.00 213.48
41.20 985.00 214.79
44.29 994.00 216.75
-91.09 991.00 213.31
-86.78 973.00 209.44
-83.01 960.00 206.65
-79.64 951.00 204.72
-76.64 946.00 203.65
-73.59 940.00 202.36
-70.80 937.00 201.72
-67.95 933.00 200.87
-65.13 929.00 200.01
-62.39 926.00 199.37
-59.73 924.00 198.95
-57.15 923.00 198.74
-54.51 921.00 198.31
-52.00 921.00 198.32
-49.43 920.00 198.10
-46.87 919.00 197.89
-44.31 918.00 197.68
-41.67 915.00 197.04
-39.22 916.00 197.26
-36.68 915.00 197.05
-34.18 915.00 197.05
-31.65 914.00 196.84
-29.15 914.00 196.84
-26.68 915.00 197.06
-24.21 916.00 197.28
-21.71 916.00 197.28
-19.25 918.00 197.71
-16.75 918.00 197.71
-14.25 919.00 197.93
-11.73 918.00 197.71
-9.26 921.00 198.36
-6.76 924.00 199.01
-4.24 925.00 199.22
-1.72 926.00 199.44
0.81 926.00 199.44
3.35 928.00 199.87
5.90 931.00 200.52
8.47 934.00 201.16
11.04 936.00 201.59
13.61 937.00 201.81
16.21 939.00 202.23
18.81 941.00 202.66
21.45 944.00 203.31
24.13 948.00 204.17
26.83 952.00 205.03
29.58 957.00 206.10
32.43 964.00 207.61
35.35 972.00 209.33
38.24 978.00 210.61
41.29 987.00 212.55
-90.73 987.00 209.77
-86.61 971.00 206.38
-82.75 957.00 203.41
-79.39 948.00 201.50
-76.48 944.00 200.66
-73.59 940.00 199.81
-70.80 937.00 199.18
-67.88 932.00 198.13
-65.13 929.00 197.49
-62.46 927.00 197.07
-59.74 924.00 196.44
-57.09 922.00 196.02
-54.46 920.00 195.60
-51.95 920.00 195.61
-49.49 921.00 195.82
-46.82 918.00 195.19
-44.27 917.00 194.98
-41.68 915.00 194.56
-39.22 916.00 194.77
-36.68 915.00 194.56
-34.18 915.00 194.57
-31.61 913.00 194.15
-29.09 912.00 193.94
-26.60 912.00 193.94
-24.14 913.00 194.15
-21.67 914.00 194.37
-19.21 916.00 194.79
-16.75 918.00 195.22
-14.27 920.00 195.65
-11.77 921.00 195.86
-9.26 921.00 195.86
-6.76 923.00 196.29
-4.23 923.00 196.29
-1.72 925.00 196.71
0.81 926.00 196.93
3.35 929.00 197.57
5.89 930.00 197.78
8.46 933.00 198.42
11.04 936.00 199.05
13.63 938.00 199.48
16.22 940.00 199.90
18.81 941.00 200.11
21.47 945.00 200.96
24.13 948.00 201.60
26.83 952.00 202.44
29.62 958.00 203.72
32.47 965.00 205.20
35.36 972.00 206.69
38.20 977.00 207.75
41.37 989.00 210.30
-90.37 983.00 206.25
-86.26 967.00 202.90
-82.59 955.00 200.39
-79.31 947.00 198.72
-76.49 944.00 198.10
-73.60 940.00 197.27
-70.88 938.00 196.85
-68.03 934.00 196.02
-65.21 930.00 195.18
-62.40 926.00 194.35
-59.68 923.00 193.73
-56.91 919.00 192.89
-54.29 917.00 192.48
-51.73 916.00 192.27
-49.28 917.00 192.48
-46.73 916.00 192.28
-44.18 915.00 192.07
-41.68 915.00 192.08
-39.27 917.00 192.50
-36.72 916.00 192.29
-34.22 916.00 192.30
-31.65 914.00 191.88
-29.16 914.00 191.88
-26.63 913.00 191.67
-24.16 914.00 191.89
-21.69 915.00 192.10
-19.21 916.00 192.31
-16.77 919.00 192.94
-14.29 921.00 193.36
-11.80 923.00 193.78
-9.28 923.00 193.78
-6.76 923.00 193.78
-4.24 923.00 193.79
-1.72 926.00 194.42
0.81 927.00 194.63
3.35 929.00 195.05
5.89 929.00 195.04
8.46 933.00 195.88
11.03 935.00 196.30
13.61 937.00 196.72
16.21 939.00 197.14
18.81 941.00 197.56
21.50 946.00 198.61
24.16 949.00 199.23
26.86 953.00 200.07
29.65 959.00 201.33
32.50 966.00 202.80
35.36 972.00 204.05
38.17 976.00 204.89
41.42 990.00 207.83
-94.57 999.00 206.89
-90.01 979.00 202.76
-86.00 964.00 199.66
-82.42 953.00 197.39
-79.32 947.00 196.15
-76.41 943.00 195.33
-73.61 940.00 194.71
-70.89 938.00 194.31
-68.04 934.00 193.48
-65.28 931.00 192.87
-62.47 927.00 192.04
-59.68 923.00 191.22
-56.92 919.00 190.40
-54.29 917.00 189.99
-51.67 915.00 189.58
-49.23 916.00 189.79
-46.78 917.00 190.00
-44.28 917.00 190.00
-41.77 917.00 190.01
-39.27 917.00 190.01
-36.73 916.00 189.81
-34.15 914.00 189.40
-31.62 913.00 189.19
-29.16 914.00 189.40
-26.66 914.00 189.40
-24.19 915.00 189.61
-21.69 915.00 189.62
-19.19 915.00 189.62
-16.73 917.00 190.03
-14.26 919.00 190.45
-11.79 922.00 191.07
-9.26 921.00 190.87
-6.74 921.00 190.87
-4.23 921.00 190.87
-1.72 926.00 191.90
0.81 926.00 191.90
3.35 928.00 192.32
5.89 929.00 192.52
8.46 933.00 193.35
11.03 935.00 193.77
13.62 937.00 194.18
16.19 938.00 194.39
18.81 941.00 195.01
21.50 946.00 196.04
24.18 950.00 196.87
26.92 955.00 197.90
29.71 961.00 199.14
32.54 967.00 200.38
35.36 972.00 201.42
38.21 977.00 202.45
41.42 990.00 205.14
-94.39 997.00 203.77
-89.83 977.00 199.69
-85.83 962.00 196.64
-82.43 953.00 194.80
-79.33 947.00 193.58
-76.50 944.00 192.98
-73.77 942.00 192.57
-70.97 939.00 191.97
-68.12 935.00 191.15
-65.22 930.00 190.14
-62.34 925.00 189.12
-59.62 922.00 188.51
-56.92 919.00 187.90
-54.29 917.00 187.50
-51.62 914.00 186.89
-49.18 915.00 187.10
-46.73 916.00 187.31
-44.23 916.00 187.31
-41.73 916.00 187.32
-39.27 917.00 187.52
-36.77 917.00 187.53
-34.19 915.00 187.12
-31.66 914.00 186.92
-29.16 914.00 186.92
-26.69 915.00 187.13
-24.22 916.00 187.33
-21.72 916.00 187.34
-19.20 915.00 187.13
-16.71 916.00 187.34
-14.24 918.00 187.75
-11.77 921.00 188.37
-9.27 922.00 188.57
-6.74 921.00 188.37
-4.23 921.00 188.37
-1.71 923.00 188.78
0.81 924.00 188.98
3.34 927.00 189.59
5.89 929.00 190.00
8.46 933.00 190.82
11.02 934.00 191.02
13.59 935.00 191.23
16.16 936.00 191.43
18.80 940.00 192.25
21.48 945.00 193.27
24.19 950.00 194.29
26.92 955.00 195.31
29.68 960.00 196.33
32.51 966.00 197.55
35.36 972.00 198.78
38.29 979.00 200.21
41.51 992.00 202.86
-94.02 993.00 200.26
-89.56 974.00 196.44
-85.75 961.00 193.82
-82.52 954.00 192.42
-79.50 949.00 191.42
-76.59 945.00 190.62
-73.78 942.00 190.02
-70.90 938.00 189.22
-68.05 934.00 188.41
-65.08 928.00 187.21
-62.21 923.00 186.21
-59.63 922.00 186.01
-56.99 920.00 185.61
-54.42 919.00 185.41
-51.74 916.00 184.81
-49.24 916.00 184.82
-46.74 916.00 184.82
-44.24 916.00 184.83
-41.69 915.00 184.63
-39.23 916.00 184.83
-36.73 916.00 184.84
-34.19 915.00 184.64
-31.63 913.00 184.24
-29.13 913.00 184.24
-26.67 914.00 184.44
-24.20 915.00 184.65
-21.70 915.00 184.65
-19.22 916.00 184.85
-16.72 916.00 184.85
-14.25 918.00 185.26
-11.75 919.00 185.46
-9.26 921.00 185.87
-6.74 921.00 185.87
-4.23 922.00 186.07
-1.71 923.00 186.27
0.81 925.00 186.67
3.35 928.00 187.28
5.89 929.00 187.48
8.46 933.00 188.29
11.01 933.00 188.29
13.59 935.00 188.69
16.18 937.00 189.09
18.82 941.00 189.90
21.48 945.00 190.70
24.16 949.00 191.51
26.92 955.00 192.72
29.69 960.00 193.72
32.54 967.00 195.13
35.48 975.00 196.74
38.49 984.00 198.56
41.72 997.00 201.18
-93.93 992.00 197.37
-89.48 973.00 193.60
-85.84 962.00 191.41
-82.70 956.00 190.23
-79.76 952.00 189.44
-76.76 947.00 188.45
-73.78 942.00 187.46
-70.83 937.00 186.47
-67.91 932.00 185.48
-64.95 926.00 184.29
-62.29 924.00 183.90
-59.70 923.00 183.71
-57.12 922.00 183.51
-54.48 920.00 183.12
-51.80 917.00 182.53
-49.24 916.00 182.33
-46.69 915.00 182.14
-44.19 915.00 182.14
-41.65 914.00 181.94
-39.19 915.00 182.15
-36.70 915.00 182.15
-34.20 915.00 182.15
-31.66 914.00 181.96
-29.13 913.00 181.76
-26.70 915.00 182.16
-24.20 915.00 182.16
-21.72 916.00 182.36
-19.22 916.00 182.37
-16.74 917.00 182.57
-14.25 918.00 182.77
-11.75 919.00 182.97
-9.26 921.00 183.37
-6.74 921.00 183.37
-4.23 922.00 183.57
-1.71 923.00 183.77
0.81 925.00 184.16
3.35 929.00 184.96
5.90 930.00 185.16
8.46 933.00 185.75
11.01 933.00 185.75
13.61 936.00 186.35
16.21 939.00 186.95
18.82 941.00 187.34
21.50 946.00 188.34
24.19 950.00 189.13
26.93 955.00 190.12
29.72 961.00 191.32
32.58 968.00 192.71
35.59 978.00 194.70
38.69 989.00 196.88
-93.94 992.00 194.68
-89.58 974.00 191.15
-85.94 963.00 189.00
-82.88 958.00 188.02
-80.02 955.00 187.44
-76.92 949.00 186.27
-73.87 943.00 185.10
-70.84 937.00 183.93
-67.92 932.00 182.95
-65.02 927.00 181.97
-62.29 924.00 181.39
-59.64 922.00 181.00
-57.06 921.00 180.81
-54.43 919.00 180.42
-51.86 918.00 180.23
-49.25 916.00 179.84
-46.75 916.00 179.85
-44.20 915.00 179.65
-41.65 914.00 179.46
-39.15 914.00 179.47
-36.74 916.00 179.86
-34.24 916.00 179.86
-31.70 915.00 179.67
-29.10 912.00 179.08
-26.64 913.00 179.28
-24.17 914.00 179.48
-21.70 915.00 179.68
-19.20 915.00 179.68
-16.72 916.00 179.88
-14.23 917.00 180.08
-11.74 918.00 180.27
-9.24 919.00 180.47
-6.74 921.00 180.87
-4.24 923.00 181.26
-1.72 925.00 181.65
0.81 927.00 182.04
3.35 930.00 182.63
5.90 931.00 182.83
8.45 932.00 183.02
11.03 934.00 183.42
13.62 937.00 184.00
16.23 940.00 184.59
18.84 942.00 184.98
21.53 947.00 185.96
24.22 951.00 186.75
26.96 956.00 187.73
29.75 962.00 188.90
32.68 971.00 190.67
35.70 981.00 192.63
38.89 994.00 195.18
-94.23 995.00 192.56
-89.86 977.00 189.09
-86.22 966.00 186.96
-83.15 961.00 186.00
-80.27 958.00 185.43
-77.09 951.00 184.08
-73.95 944.00 182.73
-70.84 937.00 181.38
-68.00 933.00 180.61
-65.17 929.00 179.84
-62.43 926.00 179.27
-59.71 923.00 178.69
-57.06 921.00 178.31
-54.37 918.00 177.73
-51.87 918.00 177.74
-49.25 916.00 177.36
-46.80 917.00 177.55
-44.20 915.00 177.17
-41.70 915.00 177.17
-39.20 915.00 177.18
-36.78 917.00 177.57
-34.24 916.00 177.38
-31.74 916.00 177.38
-29.14 913.00 176.80
-26.64 913.00 176.80
-24.12 912.00 176.61
-21.68 914.00 177.00
-19.16 913.00 176.81
-16.72 916.00 177.39
-14.22 916.00 177.39
-11.75 919.00 177.97
-9.25 920.00 178.17
-6.75 922.00 178.56
-4.23 921.00 178.36
-1.72 925.00 179.14
0.81 927.00 179.53
3.36 931.00 180.30
5.91 932.00 180.49
8.47 934.00 180.88
11.05 936.00 181.27
13.65 939.00 181.85
16.23 940.00 182.04
18.88 944.00 182.81
21.58 949.00 183.78
24.30 954.00 184.75
27.02 958.00 185.52
29.79 963.00 186.48
32.76 973.00 188.42
35.81 984.00 190.55
39.05 998.00 193.25
-94.52 998.00 190.43
-90.24 981.00 187.20
-86.58 970.00 185.10
-83.50 965.00 184.16
-80.53 961.00 183.40
-77.26 953.00 181.88
-74.03 945.00 180.36
-70.93 938.00 179.03
-68.00 933.00 178.08
-65.17 929.00 177.32
-62.37 925.00 176.56
-59.65 922.00 176.00
-57.07 921.00 175.81
-54.44 919.00 175.43
-51.87 918.00 175.25
-49.20 915.00 174.68
-46.65 914.00 174.49
-44.11 913.00 174.30
-41.70 915.00 174.69
-39.25 916.00 174.88
-36.78 917.00 175.08
-34.20 915.00 174.70
-31.74 916.00 174.89
-29.14 913.00 174.32
-26.62 912.00 174.13
-24.10 911.00 173.94
-21.66 913.00 174.33
-19.18 914.00 174.52
-16.72 916.00 174.90
-14.23 917.00 175.10
-11.75 919.00 175.48
-9.25 920.00 175.67
-6.75 922.00 176.05
-4.24 923.00 176.24
-1.72 926.00 176.82
0.81 928.00 177.20
3.36 932.00 177.96
5.91 932.00 177.96
8.47 934.00 178.34
11.05 936.00 178.72
13.65 939.00 179.30
16.25 941.00 179.68
18.90 945.00 180.44
21.62 951.00 181.58
24.37 957.00 182.73
27.10 961.00 183.49
29.88 966.00 184.44
32.83 975.00 186.16
35.93 987.00 188.44
-94.72 1000.00 188.10
-90.52 984.00 185.10
-86.85 973.00 183.03
-83.77 968.00 182.10
-80.71 963.00 181.17
-77.43 955.00 179.67
-74.20 947.00 178.17
-71.08 940.00 176.86
-68.15 935.00 175.92
-65.25 930.00 174.99
-62.44 926.00 174.24
-59.72 923.00 173.68
-57.20 923.00 173.68
-54.56 921.00 173.31
-51.87 918.00 172.75
-49.26 916.00 172.38
-46.71 915.00 172.19
-44.21 915.00 172.20
-41.75 916.00 172.39
-39.25 916.00 172.39
-36.75 916.00 172.40
-34.25 916.00 172.40
-31.74 916.00 172.40
-29.18 914.00 172.03
-26.68 914.00 172.03
-24.15 913.00 171.84
-21.68 914.00 172.03
-19.18 914.00 172.04
-16.76 918.00 172.79
-14.27 919.00 172.98
-11.77 920.00 173.17
-9.26 921.00 173.36
-6.75 922.00 173.55
-4.24 924.00 173.92
-1.72 926.00 174.30
0.81 929.00 174.87
3.36 932.00 175.43
5.92 934.00 175.81
8.48 935.00 175.99
11.08 938.00 176.56
13.68 941.00 177.12
16.31 944.00 177.68
18.95 947.00 178.25
21.65 952.00 179.19
24.43 959.00 180.50
27.19 964.00 181.44
30.01 970.00 182.57
32.93 978.00 184.07
36.07 991.00 186.52
-90.80 987.00 182.98
-87.22 977.00 181.13
-84.03 971.00 180.03
-80.71 963.00 178.55
-77.52 956.00 177.26
-74.28 948.00 175.78
-71.32 943.00 174.86
-68.30 937.00 173.75
-65.39 932.00 172.83
-62.51 927.00 171.91
-59.85 925.00 171.54
-57.20 923.00 171.17
-54.62 922.00 170.99
-51.88 918.00 170.26
-49.32 917.00 170.07
-46.76 916.00 169.89
-44.36 918.00 170.27
-41.80 917.00 170.09
-39.30 917.00 170.09
-36.71 915.00 169.72
-34.21 915.00 169.72
-31.64 913.00 169.36
-29.15 913.00 169.36
-26.68 914.00 169.55
-24.21 915.00 169.73
-21.73 916.00 169.92
-19.21 915.00 169.74
-16.76 918.00 170.30
-14.25 918.00 170.30
-11.76 919.00 170.48
-9.26 921.00 170.86
-6.77 924.00 171.41
-4.26 927.00 171.97
-1.72 928.00 172.16
0.81 929.00 172.34
3.36 930.00 172.53
5.91 932.00 172.90
8.47 933.00 173.08
11.06 937.00 173.82
13.68 941.00 174.56
16.32 945.00 175.30
18.97 948.00 175.86
21.67 953.00 176.79
24.48 961.00 178.27
27.30 968.00 179.56
30.14 974.00 180.67
33.13 984.00 182.53
36.30 997.00 184.94
-91.18 991.00 181.03
-87.67 982.00 179.39
-84.30 974.00 177.93
-80.97 966.00 176.48
-77.69 958.00 175.02
-74.52 951.00 173.75
-71.47 945.00 172.66
-68.53 940.00 171.75
-65.54 934.00 170.66
-62.65 929.00 169.75
-59.99 927.00 169.39
-57.27 924.00 168.85
-54.69 923.00 168.67
-52.00 920.00 168.13
-49.48 920.00 168.13
-46.97 920.00 168.13
-44.50 921.00 168.32
-41.85 918.00 167.78
-39.26 916.00 167.41
-36.75 916.00 167.42
-34.25 916.00 167.42
-31.68 914.00 167.06
-29.18 914.00 167.06
-26.71 915.00 167.24
-24.24 916.00 167.43
-21.80 919.00 167.98
-19.27 918.00 167.80
-16.76 918.00 167.80
-14.24 917.00 167.62
-11.74 918.00 167.80
-9.26 921.00 168.35
-6.78 926.00 169.27
-4.27 929.00 169.81
-1.73 929.00 169.82
0.81 930.00 170.00
3.36 932.00 170.36
5.92 934.00 170.73
8.49 936.00 171.09
11.09 939.00 171.64
13.73 944.00 172.55
16.38 948.00 173.28
19.03 951.00 173.83
21.72 955.00 174.56
24.53 963.00 176.02
27.36 970.00 177.30
30.29 979.00 178.94
33.34 990.00 180.95
-91.74 997.00 179.41
-88.21 988.00 177.80
-84.74 979.00 176.19
-81.14 968.00 174.21
-77.85 960.00 172.78
-74.61 952.00 171.35
-71.55 946.00 170.27
-68.61 941.00 169.38
-65.69 936.00 168.48
-62.79 931.00 167.59
-60.12 929.00 167.23
-57.40 926.00 166.70
-54.75 924.00 166.34
-52.11 922.00 165.99
-49.59 922.00 165.99
-47.13 923.00 166.17
-44.56 922.00 166.00
-41.95 920.00 165.64
-39.35 918.00 165.28
-36.76 916.00 164.93
-34.22 915.00 164.75
-31.75 916.00 164.93
-29.25 916.00 164.93
-26.80 918.00 165.30
-24.35 920.00 165.66
-21.90 923.00 166.20
-19.36 922.00 166.02
-16.82 921.00 165.84
-14.25 918.00 165.31
-11.77 920.00 165.67
-9.28 922.00 166.03
-6.79 927.00 166.93
-4.26 928.00 167.11
-1.73 930.00 167.47
0.81 931.00 167.65
3.37 934.00 168.19
5.93 935.00 168.37
8.50 937.00 168.73
11.11 941.00 169.45
13.76 946.00 170.35
16.41 950.00 171.07
19.09 954.00 171.79
21.81 959.00 172.68
24.61 966.00 173.94
27.48 974.00 175.38
30.45 984.00 177.18
33.61 998.00 179.70
-89.02 997.00 176.71
-85.35 986.00 174.77
-81.65 974.00 172.65
-78.18 964.00 170.88
-74.85 955.00 169.29
-71.71 948.00 168.05
-68.76 943.00 167.17
-65.83 938.00 166.29
-63.07 935.00 165.77
-60.32 932.00 165.24
-57.59 929.00 164.71
-54.81 925.00 164.01
-52.29 925.00 164.01
-49.71 924.00 163.84
-47.18 924.00 163.84
-44.56 922.00 163.49
-41.99 921.00 163.32
-39.39 919.00 162.96
-36.84 918.00 162.79
-34.33 918.00 162.79
-31.89 920.00 163.15
-29.34 919.00 162.98
-26.86 920.00 163.16
-24.35 920.00 163.16
-21.93 924.00 163.87
-19.38 923.00 163.69
-16.87 924.00 163.87
-14.30 921.00 163.34
-11.81 923.00 163.70
-9.29 923.00 163.70
-6.79 927.00 164.41
-4.27 929.00 164.76
-1.73 933.00 165.47
0.82 933.00 165.47
3.38 936.00 166.00
5.94 937.00 166.18
8.54 941.00 166.89
11.16 945.00 167.60
13.82 950.00 168.48
16.47 953.00 169.02
19.15 957.00 169.72
21.84 960.00 170.25
24.66 968.00 171.67
27.56 977.00 173.26
30.67 991.00 175.75
-86.14 995.00 173.66
-82.25 981.00 171.22
-78.60 969.00 169.13
-75.17 959.00 167.39
-72.02 952.00 166.17
-68.98 946.00 165.13
-66.12 942.00 164.44
-63.34 939.00 163.92
-60.58 936.00 163.40
-57.84 933.00 162.88
-55.00 928.00 162.01
-52.40 927.00 161.84
-49.82 926.00 161.67
-47.24 925.00 161.50
-44.66 924.00 161.33
-42.09 923.00 161.16
-39.52 922.00 160.99
-36.96 921.00 160.82
-34.45 921.00 160.82
-31.93 921.00 160.82
-29.41 921.00 160.83
-26.92 922.00 161.00
-24.40 922.00 161.00
-21.91 923.00 161.18
-19.38 923.00 161.18
-16.89 925.00 161.53
-14.37 925.00 161.53
-11.86 927.00 161.88
-9.32 926.00 161.71
-6.80 928.00 162.06
-4.27 929.00 162.24
-1.74 934.00 163.11
0.82 935.00 163.28
3.38 936.00 163.46
5.96 939.00 163.98
8.55 942.00 164.51
11.19 947.00 165.38
13.83 951.00 166.07
16.50 955.00 166.77
19.21 960.00 167.64
21.95 965.00 168.52
24.82 974.00 170.09
27.74 983.00 171.65
30.86 997.00 174.10
-83.09 991.00 170.27
-79.17 976.00 167.70
-75.64 965.00 165.81
-72.33 956.00 164.27
-69.28 950.00 163.25
-66.40 946.00 162.56
-63.55 942.00 161.88
-60.78 939.00 161.37
-57.97 935.00 160.69
-55.24 932.00 160.18
-52.58 930.00 159.84
-49.98 929.00 159.67
-47.29 926.00 159.16
-44.71 925.00 158.99
-42.14 924.00 158.82
-39.57 923.00 158.65
-37.01 922.00 158.48
-34.49 922.00 158.49
-32.00 923.00 158.66
-29.45 922.00 158.49
-26.95 923.00 158.67
-24.40 922.00 158.50
-21.93 924.00 158.84
-19.38 923.00 158.67
-16.91 926.00 159.19
-14.41 928.00 159.53
-11.89 929.00 159.71
-9.34 928.00 159.54
-6.81 929.00 159.71
-4.29 933.00 160.40
-1.74 936.00 160.91
0.82 939.00 161.43
3.39 940.00 161.60
5.98 943.00 162.11
8.59 946.00 162.63
11.23 951.00 163.49
13.86 953.00 163.83
16.54 957.00 164.52
19.28 963.00 165.55
22.04 969.00 166.58
24.97 980.00 168.47
27.96 991.00 170.36
-83.85 1000.00 169.09
-79.82 984.00 166.40
-76.20 972.00 164.37
-72.79 962.00 162.69
-69.65 955.00 161.51
-66.62 949.00 160.50
-63.76 945.00 159.83
-60.98 942.00 159.32
-58.22 939.00 158.82
-55.54 937.00 158.49
-52.86 935.00 158.15
-50.25 934.00 157.99
-47.50 930.00 157.32
-44.86 928.00 156.98
-42.23 926.00 156.65
-39.66 925.00 156.48
-37.13 925.00 156.48
-34.56 924.00 156.32
-32.00 923.00 156.15
-29.54 925.00 156.49
-27.07 927.00 156.83
-24.59 929.00 157.17
-22.03 928.00 157.00
-19.45 926.00 156.67
-16.93 927.00 156.84
-14.43 929.00 157.18
-11.92 931.00 157.52
-9.38 932.00 157.69
-6.83 932.00 157.69
-4.30 935.00 158.20
-1.74 938.00 158.70
0.82 942.00 159.38
3.41 944.00 159.72
6.01 948.00 160.39
8.63 950.00 160.73
11.26 953.00 161.24
13.91 956.00 161.75
16.59 960.00 162.42
19.36 967.00 163.60
22.21 976.00 165.13
25.15 987.00 166.98
28.22 1000.00 169.18
-80.64 994.00 165.38
-76.83 980.00 163.06
-73.32 969.00 161.23
-70.09 961.00 159.91
-67.04 955.00 158.91
-64.03 949.00 157.92
-61.24 946.00 157.43
-58.41 942.00 156.77
-55.78 941.00 156.60
-53.09 939.00 156.27
-50.53 939.00 156.28
-47.76 935.00 155.62
-45.01 931.00 154.95
-42.37 929.00 154.62
-39.75 927.00 154.30
-37.13 925.00 153.97
-34.60 925.00 153.97
-32.07 925.00 153.97
-29.61 927.00 154.31
-27.13 929.00 154.64
-24.70 933.00 155.31
-22.15 933.00 155.31
-19.55 931.00 154.98
-16.99 930.00 154.81
-14.45 930.00 154.82
-11.93 932.00 155.15
-9.40 934.00 155.48
-6.86 936.00 155.82
-4.31 938.00 156.15
-1.75 941.00 156.65
0.83 945.00 157.32
3.42 948.00 157.81
6.03 951.00 158.31
8.65 953.00 158.65
11.28 955.00 158.98
13.95 959.00 159.64
16.66 964.00 160.47
19.48 973.00 161.97
22.34 982.00 163.47
25.34 994.00 165.46
-77.70 991.00 162.19
-74.01 978.00 160.07
-70.46 966.00 158.11
-67.40 960.00 157.13
-64.37 954.00 156.16
-61.64 952.00 155.83
-58.79 948.00 155.18
-56.08 946.00 154.86
-53.32 943.00 154.37
-50.69 942.00 154.21
-47.97 939.00 153.73
-45.25 936.00 153.24
-42.56 933.00 152.75
-39.92 931.00 152.43
-37.26 928.00 151.94
-34.68 927.00 151.78
-32.11 926.00 151.62
-29.64 928.00 151.95
-27.16 930.00 152.28
-24.73 934.00 152.93
-22.17 934.00 152.93
-19.62 934.00 152.94
-17.03 932.00 152.61
-14.49 933.00 152.77
-11.97 935.00 153.10
-9.43 937.00 153.43
-6.89 940.00 153.92
-4.32 941.00 154.09
-1.76 945.00 154.74
0.83 948.00 155.23
3.44 952.00 155.89
6.06 955.00 156.38
8.67 955.00 156.38
11.32 958.00 156.87
14.01 963.00 157.69
16.77 970.00 158.83
19.58 978.00 160.14
22.51 989.00 161.94
-74.77 988.00 159.02
-71.12 975.00 156.93
-67.90 967.00 155.65
-64.78 960.00 154.53
-61.97 957.00 154.05
-59.04 952.00 153.25
-56.32 950.00 152.93
-53.55 947.00 152.45
-50.86 945.00 152.13
-48.17 943.00 151.81
-45.50 941.00 151.50
-42.83 939.00 151.18
-40.10 935.00 150.54
-37.42 932.00 150.06
-34.83 931.00 149.90
-32.32 932.00 150.06
-29.77 932.00 150.06
-27.20 931.00 149.90
-24.70 933.00 150.23
-22.20 935.00 150.55
-19.68 937.00 150.88
-17.10 936.00 150.72
-14.56 937.00 150.88
-11.99 937.00 150.88
-9.45 939.00 151.20
-6.91 942.00 151.69
-4.33 943.00 151.85
-1.76 947.00 152.49
0.83 950.00 152.97
3.44 953.00 153.46
6.07 956.00 153.94
8.71 959.00 154.42
11.38 963.00 155.07
14.10 969.00 156.03
16.87 976.00 157.16
19.74 986.00 158.77
22.67 996.00 160.37
-72.08 988.00 156.33
-68.46 975.00 154.28
-65.26 967.00 153.02
-62.23 961.00 152.07
-59.29 956.00 151.29
-56.44 952.00 150.66
-53.61 948.00 150.03
-50.97 947.00 149.88
-48.38 947.00 149.88
-45.74 946.00 149.72
-43.02 943.00 149.25
-40.27 939.00 148.62
-37.66 938.00 148.47
-35.02 936.00 148.15
-32.46 936.00 148.16
-29.90 936.00 148.16
-27.31 935.00 148.00
-24.76 935.00 148.00
-22.22 936.00 148.16
-19.71 938.00 148.48
-17.16 939.00 148.64
-14.59 939.00 148.64
-12.02 939.00 148.64
-9.46 940.00 148.80
-6.91 943.00 149.28
-4.35 946.00 149.75
-1.77 949.00 150.23
0.83 953.00 150.86
3.45 956.00 151.34
6.09 960.00 151.97
8.75 963.00 152.44
11.44 968.00 153.24
14.20 976.00 154.50
17.01 984.00 155.77
19.90 994.00 157.35
-69.45 989.00 153.80
-65.87 976.00 151.79
-62.69 968.00 150.55
-59.67 962.00 149.62
-56.80 958.00 149.00
-53.96 954.00 148.38
-51.30 953.00 148.23
-48.64 952.00 148.08
-45.94 950.00 147.77
-43.25 948.00 147.46
-40.53 945.00 147.00
-37.95 945.00 147.00
-35.25 942.00 146.54
-32.67 942.00 146.54
-30.03 940.00 146.23
-27.49 941.00 146.39
-24.89 940.00 146.24
-22.32 940.00 146.24
-19.75 940.00 146.24
-17.21 942.00 146.55
-14.64 942.00 146.55
-12.07 943.00 146.71
-9.49 943.00 146.71
-6.94 946.00 147.18
-4.36 949.00 147.64
-1.77 952.00 148.11
0.84 955.00 148.58
3.46 959.00 149.20
6.12 964.00 149.98
8.79 968.00 150.60
11.52 975.00 151.69
14.32 984.00 153.09
17.20 995.00 154.80
-66.75 989.00 151.11
-63.27 977.00 149.28
-60.05 968.00 147.91
-57.16 964.00 147.31
-54.36 961.00 146.85
-51.68 960.00 146.70
-48.95 958.00 146.40
-46.19 955.00 145.95
-43.48 953.00 145.64
-40.75 950.00 145.19
-38.11 949.00 145.04
-35.44 947.00 144.74
-32.78 945.00 144.43
-30.20 945.00 144.43
-27.61 945.00 144.44
-25.00 944.00 144.29
-22.39 943.00 144.13
-19.79 942.00 143.98
-17.27 945.00 144.44
-14.70 946.00 144.60
-12.14 948.00 144.90
-9.54 948.00 144.90
-6.97 950.00 145.21
-4.38 953.00 145.67
-1.78 956.00 146.13
0.84 960.00 146.74
3.49 965.00 147.50
6.16 971.00 148.42
8.87 976.00 149.18
11.63 984.00 150.41
14.45 993.00 151.78
-64.12 990.00 148.57
-60.79 980.00 147.08
-57.70 973.00 146.03
-54.81 969.00 145.43
-52.00 966.00 144.99
-49.26 964.00 144.69
-46.48 961.00 144.24
-43.76 959.00 143.95
-41.05 957.00 143.65
-38.39 956.00 143.50
-35.67 953.00 143.06
-32.96 950.00 142.61
-30.33 949.00 142.46
-27.70 948.00 142.31
-25.08 947.00 142.16
-22.44 945.00 141.87
-19.88 946.00 142.02
-17.36 950.00 142.62
-14.81 953.00 143.07
-12.22 954.00 143.22
-9.61 954.00 143.22
-7.01 956.00 143.52
-4.41 960.00 144.12
-1.79 962.00 144.42
0.84 965.00 144.87
3.50 969.00 145.48
6.20 977.00 146.68
8.94 984.00 147.73
11.74 993.00 149.08
-61.67 994.00 146.47
-58.30 983.00 144.85
-55.27 977.00 143.97
-52.33 972.00 143.24
-49.57 970.00 142.95
-46.72 966.00 142.36
-43.99 964.00 142.07
-41.23 961.00 141.63
-38.52 959.00 141.34
-35.74 955.00 140.75
-33.10 954.00 140.61
-30.49 954.00 140.61
-27.85 953.00 140.47
-25.21 952.00 140.32
-22.59 951.00 140.17
-20.01 952.00 140.32
-17.46 955.00 140.77
-14.86 956.00 140.91
-12.26 957.00 141.06
-9.65 958.00 141.21
-7.05 961.00 141.65
-4.44 965.00 142.24
-1.80 967.00 142.54
0.85 971.00 143.13
3.53 976.00 143.87
6.25 985.00 145.19
9.03 994.00 146.52
-59.19 998.00 144.34
-55.84 987.00 142.76
-52.76 980.00 141.75
-49.93 977.00 141.32
-47.07 973.00 140.74
-44.31 971.00 140.46
-41.49 967.00 139.88
-38.68 963.00 139.30
-35.93 960.00 138.87
-33.27 959.00 138.73
-30.68 960.00 138.88
-28.03 959.00 138.74
-25.35 957.00 138.45
-22.71 956.00 138.30
-20.13 958.00 138.60
-17.57 961.00 139.03
-14.95 962.00 139.18
-12.33 963.00 139.32
-9.72 965.00 139.61
-7.10 968.00 140.05
-4.46 971.00 140.48
-1.81 973.00 140.77
0.86 979.00 141.64
3.56 986.00 142.65
6.32 996.00 144.10
-53.47 993.00 140.92
-50.45 987.00 140.07
-47.55 983.00 139.51
-44.68 979.00 138.94
-41.79 974.00 138.24
-38.96 970.00 137.67
-36.24 968.00 137.39
-33.55 967.00 137.25
-30.91 967.00 137.25
-28.23 966.00 137.11
-25.54 964.00 136.83
-22.90 964.00 136.83
-20.30 966.00 137.12
-17.68 967.00 137.26
-15.03 967.00 137.26
-12.40 968.00 137.41
-9.78 971.00 137.83
-7.14 974.00 138.26
-4.50 979.00 138.97
-1.83 983.00 139.54
0.87 990.00 140.53
3.60 997.00 141.52
-48.14 995.00 138.50
-45.19 990.00 137.81
-42.26 985.00 137.11
-39.41 981.00 136.56
-36.65 979.00 136.28
-33.90 977.00 136.01
-31.20 976.00 135.87
-28.44 973.00 135.45
-25.75 972.00 135.32
-23.09 972.00 135.32
-20.47 974.00 135.60
-17.84 976.00 135.88
-15.17 976.00 135.88
-12.51 977.00 136.02
-9.88 981.00 136.58
-7.22 984.00 137.00
-4.55 990.00 137.83
-1.85 994.00 138.39
-42.78 997.00 136.06
-39.93 994.00 135.66
-37.10 991.00 135.25
-34.29 988.00 134.84
-31.52 986.00 134.57
-28.79 985.00 134.44
-26.07 984.00 134.30
-23.38 984.00 134.31
-20.73 986.00 134.58
-18.05 987.00 134.72
-15.36 988.00 134.86
-12.67 989.00 134.99
-10.00 993.00 135.54
-7.31 997.00 136.09
-34.71 1000.00 133.75
-31.90 998.00 133.49
-29.17 998.00 133.49
-26.44 998.00 133.49
-23.71 998.00 133.49
-21.00 999.00 133.63
-18.28 1000.00 133.76
