ply
format ascii 1.0
comment generated by: python
element vertex 2079
property float x
property float y
property float z
end_header
53.73 1016.00 127.56
56.40 1014.20 127.30
58.94 1010.60 126.80
61.64 1009.70 126.67
64.52 1011.50 126.92
67.62 1016.00 127.54
45.21 1012.40 124.30
47.84 1009.70 123.93
50.55 1008.80 123.80
53.15 1006.10 123.43
55.73 1003.40 123.06
58.30 1000.70 122.69
61.03 1000.70 122.69
63.89 1002.50 122.93
66.89 1006.10 123.41
69.99 1010.60 124.02
42.40 1011.50 121.42
44.90 1006.10 120.70
47.51 1003.40 120.34
50.20 1002.50 120.21
52.78 999.80 119.85
55.35 997.10 119.49
57.89 994.40 119.12
60.67 995.30 119.24
63.45 996.20 119.35
66.43 999.80 119.83
69.44 1003.40 120.31
72.68 1009.70 121.14
37.05 1016.00 119.25
39.68 1012.40 118.78
42.24 1007.90 118.19
44.82 1004.30 117.72
47.37 1000.70 117.25
49.95 998.00 116.89
52.57 996.20 116.65
55.24 995.30 116.53
57.78 992.60 116.18
60.49 992.60 116.17
63.26 993.50 116.29
66.17 996.20 116.64
69.10 998.90 116.99
72.33 1005.20 117.80
75.67 1012.40 118.74
36.98 1014.20 116.25
39.60 1010.60 115.79
42.16 1006.10 115.21
44.68 1001.60 114.64
47.18 997.10 114.06
49.76 994.40 113.71
52.47 994.40 113.71
55.13 993.50 113.59
57.72 991.70 113.36
60.49 992.60 113.47
63.20 992.60 113.47
66.17 996.20 113.92
69.03 998.00 114.15
71.97 1000.70 114.49
75.15 1006.10 115.17
36.91 1012.40 113.25
39.53 1008.80 112.80
42.03 1003.40 112.13
44.55 998.90 111.57
47.04 994.40 111.01
49.66 992.60 110.78
52.32 991.70 110.67
55.02 991.70 110.66
57.67 990.80 110.55
60.43 991.70 110.66
63.20 992.60 110.76
66.18 996.20 111.21
68.90 996.20 111.20
71.76 998.00 111.42
74.86 1002.50 111.98
78.45 1012.40 113.21
34.28 1016.00 110.93
36.84 1010.60 110.27
39.49 1007.90 109.94
41.99 1002.50 109.28
44.51 998.00 108.74
46.95 992.60 108.08
49.56 990.80 107.86
52.21 989.90 107.75
54.91 989.90 107.74
57.50 988.10 107.52
60.25 989.00 107.63
63.08 990.80 107.84
66.05 994.40 108.27
68.90 996.20 108.49
71.69 997.10 108.59
74.86 1002.50 109.25
78.37 1011.50 110.33
34.21 1014.20 107.94
36.77 1008.80 107.30
39.41 1006.10 106.98
42.04 1003.40 106.66
44.47 997.10 105.91
46.95 992.60 105.37
49.46 989.00 104.94
52.16 989.00 104.94
54.80 988.10 104.83
57.38 986.30 104.62
60.07 986.30 104.61
62.95 989.00 104.93
65.92 992.60 105.35
68.97 997.10 105.88
71.84 998.90 106.09
74.94 1003.40 106.62
78.30 1010.60 107.46
34.21 1014.20 105.17
36.85 1010.60 104.75
39.53 1008.80 104.54
42.17 1006.10 104.23
44.56 998.90 103.40
47.00 993.50 102.77
49.52 989.90 102.35
52.22 989.90 102.35
54.86 989.00 102.24
57.39 986.30 101.93
60.02 985.40 101.82
62.89 988.10 102.13
65.85 991.70 102.54
68.91 996.20 103.06
71.77 998.00 103.26
74.79 1001.60 103.67
78.07 1007.90 104.39
34.22 1014.20 102.40
36.92 1012.40 102.19
39.57 1009.70 101.89
42.21 1007.00 101.58
44.61 999.80 100.77
47.05 994.40 100.16
49.57 990.80 99.76
52.27 990.80 99.75
54.87 989.00 99.55
57.45 987.20 99.35
60.02 985.40 99.14
62.90 988.10 99.44
65.86 991.70 99.84
68.84 995.30 100.24
71.70 997.10 100.44
74.72 1000.70 100.84
77.84 1005.20 101.34
34.15 1012.40 99.43
36.89 1011.50 99.33
39.58 1009.70 99.13
42.13 1005.20 98.64
44.52 998.00 97.85
47.01 993.50 97.35
49.57 990.80 97.06
52.22 989.90 96.96
54.92 989.90 96.95
57.51 988.10 96.75
60.20 988.10 96.75
63.03 989.90 96.94
65.86 991.70 97.14
68.78 994.40 97.43
71.63 996.20 97.62
74.65 999.80 98.01
77.85 1005.20 98.60
81.55 1016.00 99.77
31.44 1014.20 96.85
34.05 1009.70 96.37
36.81 1009.70 96.37
39.46 1007.00 96.08
42.05 1003.40 95.70
44.48 997.10 95.03
47.01 993.50 94.64
49.52 989.90 94.26
52.12 988.10 94.07
54.82 988.10 94.06
57.57 989.00 94.16
60.39 990.80 94.34
63.22 992.60 94.53
66.13 995.30 94.82
68.99 997.10 95.00
71.85 998.90 95.19
74.80 1001.60 95.47
78.00 1007.00 96.04
81.56 1016.00 96.99
31.38 1012.40 93.89
33.99 1007.90 93.43
36.78 1008.80 93.52
39.42 1006.10 93.24
42.01 1002.50 92.87
44.39 995.30 92.12
46.92 991.70 91.75
49.43 988.10 91.38
52.02 986.30 91.19
54.71 986.30 91.18
57.57 989.00 91.46
60.46 991.70 91.74
63.35 994.40 92.01
66.33 998.00 92.38
69.34 1001.60 92.75
72.14 1002.50 92.84
74.96 1003.40 92.93
78.01 1007.00 93.29
81.48 1015.10 94.12
31.38 1012.40 91.13
33.95 1007.00 90.58
36.74 1007.90 90.67
39.42 1006.10 90.49
42.01 1002.50 90.13
44.44 996.20 89.50
46.97 992.60 89.13
49.53 989.90 88.86
52.23 989.90 88.86
54.93 989.90 88.86
57.63 989.90 88.85
60.40 990.80 88.94
63.36 994.40 89.30
66.34 998.00 89.66
69.41 1002.50 90.10
72.44 1006.10 90.46
75.26 1007.00 90.55
78.32 1010.60 90.90
81.49 1015.10 91.35
31.35 1011.50 88.27
33.95 1007.00 87.83
36.75 1007.90 87.92
39.47 1007.00 87.83
42.14 1005.20 87.65
44.62 999.80 87.13
47.16 996.20 86.78
49.78 994.40 86.60
52.50 994.40 86.60
55.16 993.50 86.51
57.75 991.70 86.33
60.40 990.80 86.24
63.30 993.50 86.50
66.21 996.20 86.76
69.27 1000.70 87.19
72.37 1005.20 87.62
75.49 1009.70 88.06
78.48 1012.40 88.32
31.32 1010.60 85.42
34.02 1008.80 85.25
36.82 1009.70 85.33
39.66 1011.50 85.50
42.31 1008.80 85.24
44.89 1005.20 84.90
47.49 1002.50 84.65
50.19 1001.60 84.56
52.87 1000.70 84.47
55.49 998.90 84.30
58.05 996.20 84.05
60.71 995.30 83.96
63.55 997.10 84.13
66.41 998.90 84.29
69.42 1002.50 84.63
72.44 1006.10 84.96
75.64 1011.50 85.47
78.72 1015.10 85.80
31.45 1014.20 82.98
34.23 1014.20 82.98
37.01 1014.20 82.98
39.74 1013.30 82.90
42.31 1008.80 82.49
44.98 1007.00 82.32
47.54 1003.40 81.99
50.14 1000.70 81.74
52.77 998.90 81.58
55.39 997.10 81.41
58.17 998.00 81.49
60.96 998.90 81.57
63.88 1001.60 81.81
66.75 1003.40 81.97
69.70 1006.10 82.22
72.45 1006.10 82.21
75.57 1010.60 82.62
78.57 1013.30 82.86
36.97 1013.30 80.13
39.59 1009.70 79.81
42.10 1004.30 79.33
44.71 1001.60 79.09
47.31 998.90 78.85
49.89 996.20 78.62
52.45 993.50 78.38
55.17 993.50 78.37
57.94 994.40 78.45
60.77 996.20 78.61
63.69 998.90 78.84
66.62 1001.60 79.08
69.42 1002.50 79.15
72.23 1003.40 79.23
75.27 1007.00 79.54
78.26 1009.70 79.77
81.42 1014.20 80.17
34.26 1015.10 77.51
36.83 1009.70 77.05
39.39 1005.20 76.67
41.98 1001.60 76.36
44.63 999.80 76.20
47.07 994.40 75.74
49.59 990.80 75.44
52.14 988.10 75.21
54.83 988.10 75.20
57.59 989.00 75.28
60.35 989.90 75.35
63.11 990.80 75.43
66.02 993.50 75.65
68.94 996.20 75.88
71.88 998.90 76.10
74.83 1001.60 76.33
77.80 1004.30 76.56
80.86 1007.90 76.86
83.95 1011.50 77.16
34.06 1009.70 74.29
36.61 1004.30 73.85
39.32 1003.40 73.77
42.02 1002.50 73.70
44.67 1000.70 73.55
47.12 995.30 73.10
49.59 990.80 72.73
52.03 986.30 72.36
54.67 985.40 72.29
57.24 983.60 72.14
59.86 982.70 72.06
62.54 982.70 72.06
65.35 984.50 72.20
68.32 988.10 72.50
71.37 992.60 72.86
74.38 996.20 73.15
77.33 998.90 73.37
80.30 1001.60 73.59
83.37 1005.20 73.88
86.72 1011.50 74.39
31.33 1010.60 71.60
33.90 1005.20 71.17
36.57 1003.40 71.03
39.36 1004.30 71.10
42.02 1002.50 70.96
44.54 998.00 70.60
46.89 990.80 70.03
49.34 986.30 69.67
51.98 985.40 69.60
54.56 983.60 69.46
57.13 981.80 69.31
59.62 979.10 69.10
62.29 979.10 69.10
65.02 980.00 69.17
67.97 983.60 69.45
70.94 987.20 69.73
73.94 990.80 70.01
76.79 992.60 70.15
79.74 995.30 70.36
82.87 999.80 70.71
86.12 1005.20 71.13
89.66 1013.30 71.76
25.95 1016.00 69.24
28.56 1010.60 68.83
31.15 1005.20 68.42
33.73 1000.70 68.08
36.39 998.90 67.95
39.05 997.10 67.81
41.64 994.40 67.60
44.09 989.00 67.19
46.46 982.70 66.71
48.99 980.00 66.51
51.61 979.10 66.44
54.17 977.30 66.30
56.78 976.40 66.23
59.38 975.50 66.16
62.16 977.30 66.29
64.89 978.20 66.36
67.70 980.00 66.49
70.44 980.90 66.56
73.41 984.50 66.83
76.33 987.20 67.03
79.26 989.90 67.23
82.30 993.50 67.50
85.52 998.90 67.91
89.04 1007.00 68.52
92.62 1015.10 69.13
23.12 1014.20 66.33
25.75 1008.80 65.94
28.40 1005.20 65.68
30.96 999.80 65.28
33.53 995.30 64.95
36.03 989.90 64.56
38.61 987.20 64.36
41.10 982.70 64.04
43.60 979.10 63.77
45.99 973.70 63.38
48.54 971.90 63.25
51.19 971.90 63.24
53.84 971.90 63.24
56.60 973.70 63.37
59.26 973.70 63.37
62.17 977.30 63.63
64.76 976.40 63.56
67.42 976.40 63.56
70.01 975.50 63.49
72.97 979.10 63.75
75.79 980.90 63.88
78.78 984.50 64.14
81.63 986.30 64.27
84.84 991.70 64.65
88.34 999.80 65.24
91.98 1008.80 65.89
20.32 1013.30 63.49
22.99 1008.80 63.18
25.62 1004.30 62.87
28.20 998.90 62.49
30.65 990.80 61.92
33.16 985.40 61.55
35.63 980.00 61.17
38.15 976.40 60.92
40.64 972.80 60.67
43.20 971.00 60.54
45.71 968.30 60.35
48.29 967.40 60.28
50.88 966.50 60.22
53.45 965.60 60.16
56.20 967.40 60.28
58.95 969.20 60.40
61.78 971.90 60.59
64.36 971.00 60.52
67.01 971.00 60.52
69.65 971.00 60.52
72.60 974.60 60.77
75.48 977.30 60.95
78.31 979.10 61.08
81.06 980.00 61.14
84.07 983.60 61.38
87.55 991.70 61.95
91.16 1000.70 62.57
94.83 1009.70 63.19
98.27 1016.00 63.63
20.28 1011.50 60.60
22.87 1004.30 60.12
25.42 997.10 59.64
27.89 989.00 59.10
30.37 982.70 58.68
32.85 977.30 58.32
35.34 972.80 58.02
37.87 970.10 57.84
40.39 967.40 57.65
42.89 964.70 57.47
45.47 963.80 57.41
48.09 963.80 57.41
50.77 964.70 57.47
53.40 964.70 57.47
56.02 964.70 57.47
58.71 965.60 57.52
61.47 967.40 57.64
64.10 967.40 57.64
66.73 967.40 57.64
69.37 967.40 57.64
72.22 970.10 57.81
75.10 972.80 57.99
77.83 973.70 58.05
80.56 974.60 58.11
83.47 977.30 58.28
86.75 983.60 58.70
90.25 991.70 59.24
93.90 1000.70 59.83
97.40 1007.90 60.31
100.85 1014.20 60.72
17.53 1012.40 57.89
20.16 1006.10 57.49
22.69 997.10 56.91
25.19 989.00 56.40
27.64 980.90 55.88
30.13 975.50 55.54
32.62 971.00 55.25
35.16 968.30 55.08
37.68 965.60 54.91
40.22 963.80 54.79
42.67 960.20 54.56
45.28 960.20 54.56
47.95 961.10 54.62
50.72 963.80 54.79
53.29 962.90 54.73
55.85 962.00 54.67
58.53 962.90 54.72
61.28 964.70 54.84
63.84 963.80 54.78
66.39 962.90 54.72
69.08 963.80 54.77
72.00 967.40 55.00
74.79 969.20 55.11
77.59 971.00 55.22
80.23 971.00 55.22
83.04 972.80 55.33
86.22 978.20 55.67
89.53 984.50 56.07
92.96 991.70 56.53
96.34 998.00 56.92
99.76 1004.30 57.32
103.42 1012.40 57.83
14.79 1014.20 55.23
17.44 1007.90 54.84
20.04 1000.70 54.41
22.53 990.80 53.81
24.96 980.90 53.21
27.44 974.60 52.83
29.97 971.00 52.61
32.48 967.40 52.39
35.05 965.60 52.28
37.60 963.80 52.17
40.14 962.00 52.06
42.67 960.20 51.95
45.24 959.30 51.89
47.95 961.10 52.00
50.72 963.80 52.16
53.29 962.90 52.11
55.79 961.10 52.00
58.41 961.10 51.99
61.02 961.10 51.99
63.64 961.10 51.99
66.18 960.20 51.93
68.87 961.10 51.99
71.55 962.00 52.04
74.40 964.70 52.20
77.27 967.40 52.36
80.07 969.20 52.47
82.79 970.10 52.52
85.78 973.70 52.74
88.98 979.10 53.06
92.40 986.30 53.49
95.67 991.70 53.82
99.07 998.00 54.19
102.61 1005.20 54.63
106.40 1014.20 55.17
12.03 1016.00 52.55
14.70 1008.80 52.14
17.31 1000.70 51.67
19.86 992.60 51.20
22.37 984.50 50.74
24.83 976.40 50.27
27.30 970.10 49.91
29.82 966.50 49.70
32.38 964.70 49.60
34.98 963.80 49.55
37.52 962.00 49.44
40.06 960.20 49.34
42.58 958.40 49.23
45.19 958.40 49.23
47.85 959.30 49.28
50.51 960.20 49.33
53.12 960.20 49.33
55.68 959.30 49.28
58.35 960.20 49.33
60.90 959.30 49.27
63.44 958.40 49.22
65.91 956.60 49.11
68.51 956.60 49.11
71.18 957.50 49.16
74.02 960.20 49.32
76.87 962.90 49.47
79.74 965.60 49.62
82.53 967.40 49.72
85.52 971.00 49.93
88.62 975.50 50.18
91.84 980.90 50.49
95.09 986.30 50.80
98.57 993.50 51.21
102.10 1000.70 51.62
105.77 1008.80 52.08
11.97 1011.50 49.52
14.61 1003.40 49.08
17.20 995.30 48.64
19.72 986.30 48.15
22.24 979.10 47.76
24.70 971.90 47.36
27.19 966.50 47.07
29.66 962.00 46.82
32.25 961.10 46.77
34.87 961.10 46.77
37.48 961.10 46.77
40.02 959.30 46.67
42.58 958.40 46.62
45.19 958.40 46.62
47.80 958.40 46.62
50.35 957.50 46.57
52.90 956.60 46.52
55.50 956.60 46.52
58.11 956.60 46.52
60.52 953.90 46.37
63.17 954.80 46.42
65.77 954.80 46.42
68.51 956.60 46.51
70.96 954.80 46.41
73.63 955.70 46.46
76.39 957.50 46.55
79.24 960.20 46.70
82.19 963.80 46.89
85.17 967.40 47.09
88.16 971.00 47.28
91.37 976.40 47.57
94.61 981.80 47.86
97.98 988.10 48.20
101.39 994.40 48.54
105.15 1003.40 49.03
108.96 1012.40 49.52
9.22 1013.30 46.84
11.93 1007.90 46.57
14.55 999.80 46.15
17.12 990.80 45.69
19.60 980.90 45.18
22.10 973.70 44.81
24.60 968.30 44.53
27.07 962.90 44.25
29.57 959.30 44.07
32.12 957.50 43.97
34.69 956.60 43.93
37.25 955.70 43.88
39.81 954.80 43.83
42.40 954.80 43.83
45.00 954.80 43.83
47.55 953.90 43.78
50.09 953.00 43.73
52.68 953.00 43.73
55.27 953.00 43.73
57.86 953.00 43.73
60.33 951.20 43.64
63.04 953.00 43.73
65.63 953.00 43.73
68.29 953.90 43.77
70.81 953.00 43.72
73.40 953.00 43.72
76.07 953.90 43.77
78.91 956.60 43.90
81.77 959.30 44.04
84.82 963.80 44.27
87.71 966.50 44.40
90.81 971.00 44.63
94.03 976.40 44.91
97.38 982.70 45.23
100.77 989.00 45.55
104.31 996.20 45.92
108.10 1005.20 46.38
112.17 1016.00 46.93
9.18 1009.70 43.89
11.85 1002.50 43.55
14.47 994.40 43.15
17.03 986.30 42.76
19.52 977.30 42.33
21.96 968.30 41.89
24.48 963.80 41.67
26.96 959.30 41.46
29.48 956.60 41.32
32.01 954.80 41.24
34.58 953.90 41.19
37.13 953.00 41.15
39.68 952.10 41.10
42.27 952.10 41.10
44.77 950.30 41.01
47.30 949.40 40.97
49.93 950.30 41.01
52.57 951.20 41.06
55.10 950.30 41.01
57.68 950.30 41.01
60.13 948.50 40.92
62.84 950.30 41.01
65.43 950.30 41.00
68.15 952.10 41.09
70.66 951.20 41.05
73.25 951.20 41.04
75.91 952.10 41.09
78.66 953.90 41.17
81.51 956.60 41.30
84.46 960.20 41.47
87.44 963.80 41.64
90.53 968.30 41.86
93.64 972.80 42.07
96.79 977.30 42.29
100.06 982.70 42.55
103.47 989.00 42.85
107.24 998.00 43.28
111.40 1009.70 43.84
6.46 1016.00 41.42
9.15 1006.10 40.97
11.81 998.90 40.64
14.41 990.80 40.27
16.94 981.80 39.87
19.43 972.80 39.46
21.87 964.70 39.09
24.37 960.20 38.89
26.88 956.60 38.72
29.42 954.80 38.64
31.88 951.20 38.48
34.39 949.40 38.39
36.94 948.50 38.35
39.47 947.60 38.31
42.00 946.70 38.27
44.53 945.80 38.23
47.15 946.70 38.27
49.77 947.60 38.31
52.41 948.50 38.35
54.92 947.60 38.30
57.38 945.80 38.22
59.88 944.90 38.18
62.58 946.70 38.26
65.15 946.70 38.26
67.79 947.60 38.30
70.29 946.70 38.26
72.94 947.60 38.29
75.67 949.40 38.37
78.58 953.00 38.54
81.43 955.70 38.66
84.29 958.40 38.78
87.26 962.00 38.94
90.25 965.60 39.10
93.36 970.10 39.30
96.49 974.60 39.50
99.55 978.20 39.66
102.84 983.60 39.91
106.38 990.80 40.23
110.41 1001.60 40.72
114.72 1014.20 41.28
6.42 1009.70 38.36
9.10 1001.60 38.02
11.74 993.50 37.68
14.29 983.60 37.26
16.81 974.60 36.88
19.26 965.60 36.50
21.71 958.40 36.20
24.25 955.70 36.08
26.76 953.00 35.97
29.29 951.20 35.89
31.75 947.60 35.74
34.25 945.80 35.66
36.82 945.80 35.66
39.39 945.80 35.66
41.87 944.00 35.58
44.44 944.00 35.58
47.00 944.00 35.58
49.67 945.80 35.66
52.18 944.90 35.62
54.75 944.90 35.62
57.25 944.00 35.58
59.75 943.10 35.54
62.31 943.10 35.54
64.94 944.00 35.57
67.58 944.90 35.61
70.07 944.00 35.57
72.78 945.80 35.64
75.43 946.70 35.68
78.33 950.30 35.83
81.09 952.10 35.91
83.94 954.80 36.02
86.89 958.40 36.17
89.97 962.90 36.36
93.07 967.40 36.54
96.10 971.00 36.69
99.15 974.60 36.84
102.43 980.00 37.07
105.85 986.30 37.33
109.86 997.10 37.79
113.93 1007.90 38.24
3.66 1012.40 35.71
6.37 1003.40 35.35
9.04 995.30 35.03
11.65 987.20 34.72
14.18 976.40 34.29
16.67 967.40 33.94
19.12 959.30 33.62
21.65 955.70 33.48
24.17 953.00 33.37
26.71 951.20 33.30
29.17 947.60 33.16
31.61 944.00 33.02
34.14 943.10 32.98
36.74 944.00 33.02
39.31 944.00 33.02
41.78 942.20 32.95
44.29 941.30 32.91
46.85 941.30 32.91
49.46 942.20 32.94
51.96 941.30 32.91
54.58 942.20 32.94
57.01 940.40 32.87
59.63 941.30 32.90
62.05 939.50 32.83
64.74 941.30 32.90
67.36 942.20 32.94
70.07 944.00 33.01
72.63 944.00 33.00
75.35 945.80 33.07
78.09 947.60 33.14
80.83 949.40 33.21
83.58 951.20 33.28
86.44 953.90 33.38
89.41 957.50 33.52
92.59 962.90 33.73
95.70 967.40 33.91
98.84 971.90 34.08
102.11 977.30 34.29
105.53 983.60 34.54
109.31 992.60 34.89
113.26 1002.50 35.27
0.89 1016.00 33.06
3.63 1005.20 32.67
6.33 997.10 32.38
8.98 989.90 32.12
11.56 980.00 31.76
14.08 970.10 31.40
16.56 962.00 31.11
19.02 954.80 30.85
21.56 952.10 30.75
24.09 950.30 30.68
26.65 949.40 30.65
29.11 945.80 30.52
31.58 943.10 30.42
34.07 941.30 30.36
36.70 943.10 30.42
39.27 943.10 30.42
41.78 942.20 30.39
44.20 939.50 30.29
46.70 938.60 30.26
49.20 937.70 30.22
51.68 936.80 30.19
54.40 939.50 30.29
56.95 939.50 30.28
59.63 941.30 30.35
61.98 938.60 30.25
64.60 939.50 30.28
67.15 939.50 30.28
69.85 941.30 30.34
72.55 943.10 30.41
75.19 944.00 30.44
77.84 944.90 30.47
80.49 945.80 30.50
83.23 947.60 30.56
85.98 949.40 30.63
89.03 953.90 30.79
92.20 959.30 30.98
95.30 963.80 31.14
98.43 968.30 31.30
101.70 973.70 31.50
105.10 980.00 31.72
108.87 989.00 32.05
112.58 997.10 32.34
117.15 1011.50 32.86
0.89 1010.60 30.10
3.62 1000.70 29.77
6.30 992.60 29.50
8.92 983.60 29.20
11.48 973.70 28.88
13.99 964.70 28.58
16.50 958.40 28.37
18.99 953.00 28.19
21.53 951.20 28.13
24.04 948.50 28.04
26.57 946.70 27.98
29.05 944.00 27.89
31.55 942.20 27.83
34.03 940.40 27.77
36.59 940.40 27.77
39.14 940.40 27.77
41.65 939.50 27.74
44.11 937.70 27.68
46.55 935.90 27.62
49.09 935.90 27.62
51.57 935.00 27.59
54.23 936.80 27.64
56.83 937.70 27.67
59.50 939.50 27.73
61.92 937.70 27.67
64.46 937.70 27.67
67.00 937.70 27.67
69.70 939.50 27.73
72.32 940.40 27.76
74.87 940.40 27.76
77.51 941.30 27.78
80.23 943.10 27.84
83.06 945.80 27.93
85.89 948.50 28.02
88.84 952.10 28.14
91.72 954.80 28.22
94.91 960.20 28.40
98.23 966.50 28.61
101.49 971.90 28.79
104.78 977.30 28.96
108.21 983.60 29.17
112.02 992.60 29.46
116.34 1005.20 29.88
0.88 1005.20 27.17
3.60 996.20 26.90
6.27 988.10 26.65
8.88 979.10 26.38
11.42 969.20 26.08
13.96 962.90 25.89
16.48 957.50 25.73
18.97 952.10 25.57
21.49 949.40 25.49
23.97 945.80 25.38
26.51 944.90 25.35
29.02 943.10 25.30
31.48 940.40 25.22
33.92 937.70 25.13
36.51 938.60 25.16
39.06 938.60 25.16
41.65 939.50 25.19
44.11 937.70 25.13
46.60 936.80 25.10
49.04 935.00 25.05
51.57 935.00 25.05
54.11 935.00 25.05
56.71 935.90 25.07
59.25 935.90 25.07
61.79 935.90 25.07
64.32 935.90 25.07
66.93 936.80 25.10
69.55 937.70 25.12
72.17 938.60 25.15
74.63 937.70 25.12
77.26 938.60 25.15
79.98 940.40 25.20
82.79 943.10 25.28
85.62 945.80 25.36
88.66 950.30 25.49
91.53 953.00 25.57
94.81 959.30 25.76
98.03 964.70 25.92
101.28 970.10 26.08
104.46 974.60 26.22
107.77 980.00 26.38
111.34 987.20 26.59
115.53 998.90 26.94
120.27 1014.20 27.40
-1.89 1013.30 24.63
0.88 999.80 24.27
3.58 992.60 24.07
6.24 984.50 23.85
8.83 974.60 23.59
11.37 965.60 23.34
13.93 961.10 23.22
16.48 957.50 23.12
18.97 952.10 22.98
21.44 947.60 22.86
23.92 944.00 22.76
26.45 943.10 22.73
28.96 941.30 22.69
31.44 939.50 22.64
33.89 936.80 22.56
36.43 936.80 22.56
38.97 936.80 22.56
41.56 937.70 22.59
44.06 936.80 22.56
46.60 936.80 22.56
49.04 935.00 22.51
51.58 935.00 22.51
54.05 934.10 22.49
56.65 935.00 22.51
59.12 934.10 22.48
61.72 935.00 22.51
64.19 934.10 22.48
66.93 936.80 22.55
69.55 937.70 22.58
72.09 937.70 22.58
74.47 935.90 22.53
77.01 935.90 22.53
79.72 937.70 22.57
82.61 941.30 22.67
85.53 944.90 22.77
88.38 947.60 22.84
91.24 950.30 22.91
94.41 955.70 23.05
97.72 962.00 23.22
100.86 966.50 23.34
104.13 971.90 23.49
107.44 977.30 23.63
111.11 985.40 23.85
115.30 997.10 24.16
119.92 1011.50 24.55
-1.88 1007.00 21.70
0.87 995.30 21.42
3.56 987.20 21.23
6.21 980.90 21.08
8.80 971.90 20.86
11.36 964.70 20.69
13.92 960.20 20.58
16.44 955.70 20.47
18.93 950.30 20.34
21.37 944.90 20.21
23.89 943.10 20.17
26.43 942.20 20.15
28.92 940.40 20.11
31.45 939.50 20.08
33.92 937.70 20.04
36.51 938.60 20.06
39.02 937.70 20.04
41.56 937.70 20.04
44.01 935.90 20.00
46.55 935.90 20.00
48.99 934.10 19.95
51.52 934.10 19.95
53.94 932.30 19.91
56.47 932.30 19.91
58.93 931.40 19.88
61.52 932.30 19.91
64.05 932.30 19.90
66.72 934.10 19.95
69.33 935.00 19.97
71.86 935.00 19.97
74.39 935.00 19.97
76.93 935.00 19.96
79.55 935.90 19.99
82.44 939.50 20.07
85.26 942.20 20.13
88.10 944.90 20.20
90.95 947.60 20.26
94.12 953.00 20.39
97.42 959.30 20.54
100.55 963.80 20.65
103.70 968.30 20.75
107.22 975.50 20.92
111.00 984.50 21.14
115.19 996.20 21.42
119.68 1009.70 21.74
-1.86 1001.60 18.83
0.87 990.80 18.61
3.54 982.70 18.44
6.18 976.40 18.31
8.78 969.20 18.16
11.32 962.00 18.00
13.89 958.40 17.93
16.38 952.10 17.80
18.89 948.50 17.72
21.37 944.90 17.65
23.92 944.00 17.63
26.43 942.20 17.59
28.92 940.40 17.55
31.48 940.40 17.55
33.92 937.70 17.49
36.47 937.70 17.49
38.97 936.80 17.47
41.56 937.70 17.49
44.01 935.90 17.45
46.45 934.10 17.42
48.88 932.30 17.38
51.41 932.30 17.38
53.88 931.40 17.36
56.34 930.50 17.34
58.80 929.60 17.32
61.39 930.50 17.34
63.98 931.40 17.36
66.58 932.30 17.37
69.10 932.30 17.37
71.71 933.20 17.39
74.24 933.20 17.39
76.85 934.10 17.41
79.55 935.90 17.45
82.44 939.50 17.52
85.26 942.20 17.58
87.91 943.10 17.59
90.66 944.90 17.63
93.72 949.40 17.72
97.01 955.70 17.85
100.13 960.20 17.95
103.38 965.60 18.06
107.00 973.70 18.23
111.00 984.50 18.45
115.07 995.30 18.68
119.57 1008.80 18.96
-4.68 1015.10 16.33
-1.86 998.90 16.04
0.86 988.10 15.85
3.53 980.00 15.71
6.16 973.70 15.59
8.76 967.40 15.48
11.31 961.10 15.37
13.86 956.60 15.29
16.34 950.30 15.17
18.83 945.80 15.09
21.35 944.00 15.06
23.92 944.00 15.06
26.43 942.20 15.03
28.89 939.50 14.98
31.41 938.60 14.96
33.92 937.70 14.95
36.43 936.80 14.93
38.93 935.90 14.91
41.47 935.90 14.91
43.92 934.10 14.88
46.35 932.30 14.85
48.83 931.40 14.83
51.41 932.30 14.85
53.82 930.50 14.82
56.28 929.60 14.80
58.74 928.70 14.78
61.39 930.50 14.81
63.98 931.40 14.83
66.50 931.40 14.83
69.03 931.40 14.83
71.71 933.20 14.86
74.24 933.20 14.86
76.93 935.00 14.89
79.55 935.90 14.91
82.35 938.60 14.95
85.08 940.40 14.99
87.72 941.30 15.00
90.56 944.00 15.05
93.62 948.50 15.13
96.81 953.90 15.22
99.92 958.40 15.30
103.17 963.80 15.40
106.67 971.00 15.53
110.55 980.90 15.70
114.61 991.70 15.89
118.97 1004.30 16.12
-4.67 1014.20 13.54
-1.86 998.00 13.30
0.86 988.10 13.15
3.53 978.20 13.00
6.14 970.10 12.88
8.72 963.80 12.79
11.28 958.40 12.71
13.81 953.90 12.64
16.32 949.40 12.58
18.85 946.70 12.54
21.37 944.90 12.51
23.92 944.00 12.49
26.40 941.30 12.45
28.83 937.70 12.40
31.34 936.80 12.39
33.89 936.80 12.39
36.39 935.90 12.37
38.85 934.10 12.35
41.29 932.30 12.32
43.82 932.30 12.32
46.30 931.40 12.31
48.83 931.40 12.31
51.35 931.40 12.30
53.76 929.60 12.28
56.22 928.70 12.26
58.74 928.70 12.26
61.39 930.50 12.29
63.98 931.40 12.30
66.50 931.40 12.30
69.10 932.30 12.32
71.78 934.10 12.34
74.32 934.10 12.34
76.93 935.00 12.35
79.64 936.80 12.38
82.35 938.60 12.41
85.08 940.40 12.43
87.72 941.30 12.44
90.47 943.10 12.47
93.42 946.70 12.52
96.50 951.20 12.59
99.71 956.60 12.67
102.95 962.00 12.75
106.45 969.20 12.85
110.44 980.00 13.01
114.27 989.00 13.15
118.62 1001.60 13.33
123.29 1016.00 13.54
-4.66 1012.40 10.74
-1.86 997.10 10.56
0.86 986.30 10.43
3.52 976.40 10.31
6.13 968.30 10.22
8.71 962.90 10.15
11.28 958.40 10.10
13.81 953.90 10.05
16.34 950.30 10.00
18.83 945.80 9.95
21.33 943.10 9.92
23.87 942.20 9.91
26.34 939.50 9.88
28.77 935.90 9.83
31.24 934.10 9.81
33.82 935.00 9.82
36.35 935.00 9.82
38.81 933.20 9.80
41.16 929.60 9.76
43.73 930.50 9.77
46.20 929.60 9.76
48.78 930.50 9.77
51.24 929.60 9.76
53.76 929.60 9.76
56.22 928.70 9.75
58.80 929.60 9.76
61.32 929.60 9.76
63.98 931.40 9.78
66.43 930.50 9.77
69.10 932.30 9.79
71.79 934.10 9.81
74.40 935.00 9.82
76.93 935.00 9.82
79.47 935.00 9.82
82.26 937.70 9.85
84.99 939.50 9.87
87.63 940.40 9.88
90.37 942.20 9.90
93.32 945.80 9.94
96.40 950.30 9.99
99.61 955.70 10.06
102.95 962.00 10.13
106.45 969.20 10.21
110.33 979.10 10.33
114.15 988.10 10.44
118.38 999.80 10.57
123.05 1014.20 10.74
-4.64 1008.80 7.93
-1.85 994.40 7.80
0.86 983.60 7.71
3.51 975.50 7.64
6.11 966.50 7.56
8.68 960.20 7.50
11.24 955.70 7.46
13.78 952.10 7.43
16.34 950.30 7.42
18.83 945.80 7.38
21.33 943.10 7.35
23.84 941.30 7.34
26.29 937.70 7.31
28.74 935.00 7.28
31.21 933.20 7.27
33.78 934.10 7.28
36.28 933.20 7.27
38.77 932.30 7.26
41.16 929.60 7.24
43.78 931.40 7.25
46.20 929.60 7.24
48.78 930.50 7.24
51.19 928.70 7.23
53.76 929.60 7.23
56.22 928.70 7.23
58.74 928.70 7.23
61.19 927.80 7.22
63.77 928.70 7.23
66.29 928.70 7.23
68.95 930.50 7.24
71.63 932.30 7.26
74.32 934.10 7.27
76.77 933.20 7.26
79.29 933.20 7.26
82.00 935.00 7.28
84.71 936.80 7.29
87.44 938.60 7.31
90.27 941.30 7.33
93.12 944.00 7.36
96.30 949.40 7.40
99.50 954.80 7.45
102.95 962.00 7.51
106.45 969.20 7.57
110.10 977.30 7.64
114.03 987.20 7.73
118.26 998.90 7.83
123.17 1015.10 7.97
-4.63 1007.00 5.15
-1.84 991.70 5.07
0.86 981.80 5.01
3.50 972.80 4.96
6.11 965.60 4.92
8.68 959.30 4.88
11.23 954.80 4.86
13.80 953.00 4.85
16.34 950.30 4.83
18.83 945.80 4.81
21.31 942.20 4.79
23.79 939.50 4.77
26.26 936.80 4.75
28.74 935.00 4.74
31.14 931.40 4.72
33.71 932.30 4.73
36.16 930.50 4.72
38.68 930.50 4.72
41.21 930.50 4.72
43.78 931.40 4.72
46.20 929.60 4.71
48.72 929.60 4.71
51.19 928.70 4.71
53.76 929.60 4.71
56.28 929.60 4.71
58.74 928.70 4.71
61.12 926.90 4.70
63.70 927.80 4.70
66.22 927.80 4.70
69.03 931.40 4.72
71.63 932.30 4.73
74.24 933.20 4.73
76.60 931.40 4.72
79.12 931.40 4.72
81.82 933.20 4.73
84.53 935.00 4.74
87.25 936.80 4.75
90.18 940.40 4.77
93.22 944.90 4.80
96.40 950.30 4.83
99.50 954.80 4.85
102.85 961.10 4.89
106.34 968.30 4.93
109.99 976.40 4.97
113.92 986.30 5.03
118.26 998.90 5.10
123.05 1014.20 5.19
-4.63 1006.10 2.39
-1.84 990.80 2.35
0.86 980.00 2.33
3.50 971.90 2.30
6.09 963.80 2.28
8.67 958.40 2.27
11.22 953.90 2.26
13.78 952.10 2.25
16.32 949.40 2.24
18.85 946.70 2.24
21.33 943.10 2.23
23.79 939.50 2.22
26.26 936.80 2.21
28.68 933.20 2.20
31.14 931.40 2.20
33.63 930.50 2.19
36.12 929.60 2.19
38.64 929.60 2.19
41.12 928.70 2.19
43.68 929.60 2.19
46.15 928.70 2.19
48.72 929.60 2.19
51.24 929.60 2.19
53.76 929.60 2.19
56.28 929.60 2.19
58.68 927.80 2.19
61.12 926.90 2.18
63.63 926.90 2.18
66.29 928.70 2.19
69.03 931.40 2.20
71.63 932.30 2.20
74.08 931.40 2.20
76.52 930.50 2.19
79.04 930.50 2.19
81.73 932.30 2.20
84.53 935.00 2.20
87.25 936.80 2.21
90.28 941.30 2.22
93.32 945.80 2.23
96.40 950.30 2.24
99.40 953.90 2.25
102.63 959.30 2.27
106.12 966.50 2.29
109.76 974.60 2.31
113.69 984.50 2.33
118.03 997.10 2.37
122.81 1012.40 2.41
-4.63 1007.00 -0.36
-1.84 991.70 -0.36
0.86 980.90 -0.35
3.50 971.90 -0.35
6.09 963.80 -0.34
8.67 958.40 -0.34
11.23 954.80 -0.34
13.80 953.00 -0.34
16.34 950.30 -0.34
18.87 947.60 -0.34
21.33 943.10 -0.34
23.79 939.50 -0.33
26.23 935.90 -0.33
28.68 933.20 -0.33
31.14 931.40 -0.33
33.63 930.50 -0.33
36.16 930.50 -0.33
38.68 930.50 -0.33
41.12 928.70 -0.33
43.63 928.70 -0.33
46.15 928.70 -0.33
48.67 928.70 -0.33
51.19 928.70 -0.33
53.65 927.80 -0.33
56.22 928.70 -0.33
58.74 928.70 -0.33
61.26 928.70 -0.33
63.70 927.80 -0.33
66.29 928.70 -0.33
68.88 929.60 -0.33
71.55 931.40 -0.33
74.00 930.50 -0.33
76.60 931.40 -0.33
79.12 931.40 -0.33
81.91 934.10 -0.33
84.62 935.90 -0.33
87.35 937.70 -0.33
90.47 943.10 -0.34
93.52 947.60 -0.34
96.60 952.10 -0.34
99.50 954.80 -0.34
102.63 959.30 -0.34
106.12 966.50 -0.35
109.76 974.60 -0.35
113.57 983.60 -0.35
117.91 996.20 -0.36
122.69 1011.50 -0.36
-4.64 1007.90 -3.12
-1.85 995.30 -3.08
0.86 983.60 -3.04
3.51 973.70 -3.01
6.10 964.70 -2.97
8.66 957.50 -2.95
11.23 954.80 -2.94
13.80 953.00 -2.93
16.36 951.20 -2.93
18.89 948.50 -2.92
21.35 944.00 -2.90
23.82 940.40 -2.89
26.26 936.80 -2.88
28.68 933.20 -2.87
31.18 932.30 -2.86
33.71 932.30 -2.86
36.24 932.30 -2.86
38.72 931.40 -2.86
41.16 929.60 -2.85
43.68 929.60 -2.85
46.10 927.80 -2.85
48.62 927.80 -2.85
51.13 927.80 -2.85
53.65 927.80 -2.85
56.22 928.70 -2.85
58.74 928.70 -2.85
61.26 928.70 -2.85
63.77 928.70 -2.85
66.36 929.60 -2.85
68.88 929.60 -2.85
71.63 932.30 -2.86
74.16 932.30 -2.86
76.68 932.30 -2.86
79.12 931.40 -2.86
81.82 933.20 -2.86
84.62 935.90 -2.87
87.44 938.60 -2.88
90.47 943.10 -2.90
93.52 947.60 -2.91
96.50 951.20 -2.93
99.40 953.90 -2.93
102.52 958.40 -2.95
106.01 965.60 -2.97
109.65 973.70 -3.00
113.46 982.70 -3.03
117.79 995.30 -3.08
122.69 1011.50 -3.13
-4.65 1010.60 -5.90
-1.86 998.90 -5.83
0.86 988.10 -5.76
3.52 977.30 -5.69
6.11 966.50 -5.62
8.67 958.40 -5.56
11.24 955.70 -5.55
13.83 954.80 -5.54
16.39 953.00 -5.53
18.91 949.40 -5.50
21.37 944.90 -5.48
23.84 941.30 -5.45
26.26 936.80 -5.42
28.74 935.00 -5.41
31.21 933.20 -5.40
33.71 932.30 -5.39
36.20 931.40 -5.39
38.72 931.40 -5.39
41.25 931.40 -5.39
43.73 930.50 -5.38
46.15 928.70 -5.37
48.62 927.80 -5.36
51.08 926.90 -5.36
53.59 926.90 -5.36
56.16 927.80 -5.36
58.68 927.80 -5.36
61.19 927.80 -5.36
63.77 928.70 -5.37
66.29 928.70 -5.37
68.95 930.50 -5.38
71.63 932.30 -5.39
74.24 933.20 -5.40
76.68 932.30 -5.39
79.21 932.30 -5.39
81.73 932.30 -5.39
84.44 934.10 -5.40
87.25 936.80 -5.42
90.37 942.20 -5.45
93.52 947.60 -5.49
96.60 952.10 -5.52
99.40 953.90 -5.53
102.52 958.40 -5.56
106.01 965.60 -5.60
109.76 974.60 -5.66
113.46 982.70 -5.71
117.91 996.20 -5.80
122.93 1013.30 -5.91
-4.67 1014.20 -8.71
-1.87 1003.40 -8.60
0.87 990.80 -8.48
3.53 980.00 -8.38
6.13 968.30 -8.27
8.68 960.20 -8.19
11.25 956.60 -8.16
13.81 953.90 -8.13
16.36 951.20 -8.10
18.89 948.50 -8.08
21.37 944.90 -8.04
23.84 941.30 -8.01
26.29 937.70 -7.98
28.71 934.10 -7.94
31.21 933.20 -7.93
33.71 932.30 -7.92
36.28 933.20 -7.93
38.81 933.20 -7.93
41.29 932.30 -7.92
43.73 930.50 -7.91
46.15 928.70 -7.89
48.67 928.70 -7.89
51.13 927.80 -7.88
53.59 926.90 -7.87
56.16 927.80 -7.88
58.68 927.80 -7.88
61.19 927.80 -7.88
63.77 928.70 -7.89
66.36 929.60 -7.89
69.10 932.30 -7.92
71.71 933.20 -7.93
74.24 933.20 -7.93
76.68 932.30 -7.92
79.12 931.40 -7.91
81.64 931.40 -7.91
84.44 934.10 -7.94
87.16 935.90 -7.95
90.18 940.40 -7.99
93.32 945.80 -8.05
96.40 950.30 -8.09
99.40 953.90 -8.12
102.52 958.40 -8.16
105.90 964.70 -8.22
109.76 974.60 -8.32
113.69 984.50 -8.41
118.26 998.90 -8.55
123.29 1016.00 -8.71
-1.87 1005.20 -11.37
0.87 992.60 -11.21
3.54 981.80 -11.08
6.15 971.90 -10.95
8.72 963.80 -10.85
11.28 958.40 -10.78
13.84 955.70 -10.75
16.39 953.00 -10.72
18.93 950.30 -10.68
21.40 945.80 -10.62
23.87 942.20 -10.58
26.29 937.70 -10.52
28.74 935.00 -10.49
31.21 933.20 -10.47
33.74 933.20 -10.47
36.28 933.20 -10.47
38.81 933.20 -10.46
41.29 932.30 -10.45
43.73 930.50 -10.43
46.25 930.50 -10.43
48.72 929.60 -10.42
51.24 929.60 -10.42
53.65 927.80 -10.40
56.16 927.80 -10.39
58.68 927.80 -10.39
61.19 927.80 -10.39
63.91 930.50 -10.43
66.43 930.50 -10.43
69.10 932.30 -10.45
71.55 931.40 -10.44
74.16 932.30 -10.45
76.60 931.40 -10.44
79.21 932.30 -10.45
81.91 934.10 -10.47
84.62 935.90 -10.49
87.35 937.70 -10.51
90.37 942.20 -10.57
93.52 947.60 -10.64
96.60 952.10 -10.69
99.71 956.60 -10.75
102.85 961.10 -10.81
106.23 967.40 -10.88
110.21 978.20 -11.02
114.27 989.00 -11.15
118.86 1003.40 -11.33
-1.88 1007.00 -14.15
0.87 993.50 -13.94
3.55 983.60 -13.79
6.17 974.60 -13.65
8.75 966.50 -13.52
11.30 960.20 -13.42
13.84 955.70 -13.35
16.39 953.00 -13.31
18.91 949.40 -13.25
21.40 945.80 -13.20
23.84 941.30 -13.13
26.31 938.60 -13.08
28.80 936.80 -13.06
31.24 934.10 -13.01
33.78 934.10 -13.01
36.35 935.00 -13.03
38.85 934.10 -13.01
41.34 933.20 -13.00
43.73 930.50 -12.95
46.25 930.50 -12.95
48.72 929.60 -12.94
51.24 929.60 -12.94
53.70 928.70 -12.93
56.22 928.70 -12.92
58.87 930.50 -12.95
61.46 931.40 -12.97
64.12 933.20 -12.99
66.65 933.20 -12.99
69.10 932.30 -12.98
71.63 932.30 -12.98
74.16 932.30 -12.98
76.76 933.20 -12.99
79.38 934.10 -13.00
82.09 935.90 -13.03
84.90 938.60 -13.07
87.53 939.50 -13.09
90.47 943.10 -13.14
93.52 947.60 -13.21
96.60 952.10 -13.28
100.02 959.30 -13.39
103.17 963.80 -13.46
106.78 971.90 -13.59
110.67 981.80 -13.74
114.61 991.70 -13.90
119.21 1006.10 -14.12
-1.88 1007.90 -16.93
0.87 995.30 -16.69
3.55 985.40 -16.51
6.18 975.50 -16.32
8.77 968.30 -16.19
11.34 962.90 -16.09
13.92 960.20 -16.04
16.48 957.50 -15.99
18.97 952.10 -15.89
21.44 947.60 -15.80
23.89 943.10 -15.72
26.34 939.50 -15.65
28.86 938.60 -15.63
31.34 936.80 -15.60
33.85 935.90 -15.58
36.31 934.10 -15.55
38.76 932.30 -15.51
41.25 931.40 -15.50
43.73 930.50 -15.48
46.35 932.30 -15.51
48.83 931.40 -15.50
51.35 931.40 -15.50
53.82 930.50 -15.48
56.34 930.50 -15.48
58.87 930.50 -15.48
61.45 931.40 -15.49
64.12 933.20 -15.53
66.65 933.20 -15.53
69.18 933.20 -15.52
71.63 932.30 -15.51
74.24 933.20 -15.52
76.85 934.10 -15.54
79.64 936.80 -15.59
82.35 938.60 -15.62
85.08 940.40 -15.66
87.63 940.40 -15.65
90.56 944.00 -15.72
93.72 949.40 -15.82
96.81 953.90 -15.90
100.23 961.10 -16.04
103.71 968.30 -16.17
107.44 977.30 -16.34
111.12 985.40 -16.49
115.31 997.10 -16.71
119.92 1011.50 -16.97
-1.88 1010.60 -19.75
0.87 995.30 -19.42
3.55 985.40 -19.20
6.18 976.40 -19.01
8.79 971.00 -18.89
11.37 965.60 -18.77
13.94 962.00 -18.69
16.50 958.40 -18.61
19.01 953.90 -18.52
21.49 949.40 -18.42
23.97 945.80 -18.34
26.45 943.10 -18.28
28.92 940.40 -18.22
31.41 938.60 -18.18
33.92 937.70 -18.16
36.39 935.90 -18.12
41.34 933.20 -18.06
43.87 933.20 -18.06
46.40 933.20 -18.06
48.88 932.30 -18.04
51.35 931.40 -18.02
53.76 929.60 -17.98
56.34 930.50 -18.00
58.93 931.40 -18.02
61.59 933.20 -18.06
64.12 933.20 -18.06
66.72 934.10 -18.08
69.18 933.20 -18.06
71.78 934.10 -18.08
74.32 934.10 -18.07
77.01 935.90 -18.11
79.72 937.70 -18.15
82.44 939.50 -18.19
85.08 940.40 -18.21
87.81 942.20 -18.25
90.66 944.90 -18.30
93.82 950.30 -18.42
96.91 954.80 -18.52
100.34 962.00 -18.67
103.92 970.10 -18.85
107.66 979.10 -19.04
111.46 988.10 -19.24
116.00 1002.50 -19.55
-1.89 1016.00 -22.65
0.87 998.90 -22.23
3.56 986.30 -21.92
6.19 977.30 -21.69
8.81 972.80 -21.58
11.42 969.20 -21.49
13.99 964.70 -21.38
16.53 960.20 -21.27
19.05 955.70 -21.16
21.56 952.10 -21.07
24.07 949.40 -21.00
26.57 946.70 -20.93
29.05 944.00 -20.87
31.51 941.30 -20.80
33.96 938.60 -20.73
36.43 936.80 -20.69
41.38 934.10 -20.62
44.01 935.90 -20.66
46.55 935.90 -20.66
48.99 934.10 -20.62
51.46 933.20 -20.59
53.88 931.40 -20.55
56.40 931.40 -20.55
58.93 931.40 -20.55
61.45 931.40 -20.55
64.05 932.30 -20.57
66.65 933.20 -20.59
69.25 934.10 -20.61
71.71 933.20 -20.59
74.31 934.10 -20.61
77.09 936.80 -20.68
79.81 938.60 -20.72
82.62 941.30 -20.78
85.26 942.20 -20.81
88.19 945.80 -20.89
91.14 949.40 -20.98
94.21 953.90 -21.09
97.31 958.40 -21.20
100.65 964.70 -21.36
104.24 972.80 -21.56
107.88 980.90 -21.76
112.02 992.60 -22.04
116.81 1008.80 -22.44
0.88 1003.40 -25.09
3.57 989.00 -24.69
6.20 979.10 -24.41
8.83 974.60 -24.28
11.47 972.80 -24.23
14.05 968.30 -24.11
16.57 962.00 -23.93
19.09 957.50 -23.81
21.62 954.80 -23.73
24.15 952.10 -23.66
26.68 950.30 -23.61
29.17 947.60 -23.53
31.68 945.80 -23.48
34.11 942.20 -23.38
36.51 938.60 -23.28
38.97 936.80 -23.23
41.47 935.90 -23.20
44.06 936.80 -23.23
46.60 936.80 -23.23
49.09 935.90 -23.20
51.52 934.10 -23.15
53.94 932.30 -23.10
56.40 931.40 -23.07
59.06 933.20 -23.12
61.65 934.10 -23.15
64.19 934.10 -23.15
66.72 934.10 -23.15
69.32 935.00 -23.17
71.94 935.90 -23.19
74.55 936.80 -23.22
77.26 938.60 -23.27
79.89 939.50 -23.29
82.70 942.20 -23.37
85.53 944.90 -23.44
88.56 949.40 -23.56
91.53 953.00 -23.66
94.61 957.50 -23.79
97.72 962.00 -23.91
100.97 967.40 -24.06
104.46 974.60 -24.26
108.21 983.60 -24.51
112.59 997.10 -24.88
117.62 1015.10 -25.38
0.89 1012.40 -28.11
3.59 994.40 -27.56
6.24 984.50 -27.25
8.88 979.10 -27.08
11.52 977.30 -27.03
14.12 972.80 -26.89
16.67 967.40 -26.72
19.17 961.10 -26.53
21.69 957.50 -26.41
24.20 953.90 -26.30
26.71 951.20 -26.22
29.20 948.50 -26.14
31.71 946.70 -26.08
34.14 943.10 -25.97
36.59 940.40 -25.88
39.06 938.60 -25.83
41.56 937.70 -25.80
44.11 937.70 -25.80
46.65 937.70 -25.80
49.09 935.90 -25.74
51.57 935.00 -25.71
54.05 934.10 -25.69
56.59 934.10 -25.68
59.18 935.00 -25.71
61.79 935.90 -25.74
64.46 937.70 -25.79
67.01 937.70 -25.79
69.62 938.60 -25.82
72.17 938.60 -25.82
74.87 940.40 -25.87
77.51 941.30 -25.90
80.32 944.00 -25.98
83.14 946.70 -26.06
85.99 949.40 -26.14
89.03 953.90 -26.28
92.01 957.50 -26.39
95.21 962.90 -26.56
98.44 968.30 -26.72
101.70 973.70 -26.89
105.21 980.90 -27.11
109.09 990.80 -27.41
113.60 1005.20 -27.85
3.62 1002.50 -30.55
6.28 989.90 -30.12
8.92 983.60 -29.91
11.56 980.00 -29.79
14.18 976.40 -29.66
16.74 971.00 -29.48
19.27 965.60 -29.30
21.78 961.10 -29.14
24.25 955.70 -28.96
26.76 953.00 -28.87
29.26 950.30 -28.78
31.82 949.40 -28.75
34.32 947.60 -28.68
36.82 945.80 -28.62
39.27 943.10 -28.53
41.74 941.30 -28.47
44.20 939.50 -28.41
46.75 939.50 -28.41
49.20 937.70 -28.34
51.68 936.80 -28.31
54.17 935.90 -28.28
56.65 935.00 -28.25
59.31 936.80 -28.31
61.92 937.70 -28.34
64.60 939.50 -28.40
67.15 939.50 -28.40
69.85 941.30 -28.46
72.56 943.10 -28.52
75.19 944.00 -28.55
77.84 944.90 -28.58
80.66 947.60 -28.67
83.50 950.30 -28.76
86.35 953.00 -28.85
89.41 957.50 -29.00
92.49 962.00 -29.15
95.70 967.40 -29.33
98.95 972.80 -29.51
102.33 979.10 -29.72
106.07 988.10 -30.03
110.08 998.90 -30.39
114.62 1013.30 -30.88
6.35 999.80 -33.19
8.98 989.90 -32.83
11.61 983.60 -32.59
14.25 980.90 -32.49
16.82 975.50 -32.29
19.37 970.10 -32.09
21.87 964.70 -31.89
24.35 959.30 -31.69
26.82 954.80 -31.53
29.36 953.00 -31.46
31.92 952.10 -31.43
34.51 952.10 -31.43
37.02 950.30 -31.36
39.56 949.40 -31.33
42.01 946.70 -31.22
44.58 946.70 -31.22
47.00 944.00 -31.12
49.51 943.10 -31.09
51.96 941.30 -31.02
54.52 941.30 -31.02
57.01 940.40 -30.99
59.69 942.20 -31.05
62.25 942.20 -31.05
64.95 944.00 -31.12
67.58 944.90 -31.15
70.29 946.70 -31.21
73.02 948.50 -31.28
75.68 949.40 -31.31
78.34 950.30 -31.34
81.17 953.00 -31.44
84.03 955.70 -31.54
86.81 957.50 -31.60
89.88 962.00 -31.77
93.17 968.30 -32.00
96.50 974.60 -32.23
99.86 980.90 -32.46
103.37 988.10 -32.73
107.14 997.10 -33.06
111.19 1007.90 -33.45
6.44 1013.30 -36.47
9.06 997.10 -35.82
11.65 987.20 -35.42
14.31 984.50 -35.32
16.91 980.00 -35.14
19.49 975.50 -34.96
21.97 968.30 -34.67
24.43 962.00 -34.41
26.91 957.50 -34.23
29.42 954.80 -34.13
32.02 954.80 -34.12
34.65 955.70 -34.16
37.17 953.90 -34.09
39.73 953.00 -34.05
42.23 951.20 -33.98
44.77 950.30 -33.94
47.20 947.60 -33.83
49.78 947.60 -33.83
52.30 946.70 -33.79
54.81 945.80 -33.76
57.32 944.90 -33.72
60.01 946.70 -33.79
62.52 945.80 -33.75
65.15 946.70 -33.79
67.87 948.50 -33.86
70.67 951.20 -33.97
73.41 953.00 -34.04
76.08 953.90 -34.07
78.83 955.70 -34.14
81.52 956.60 -34.18
84.38 959.30 -34.28
87.26 962.00 -34.39
90.44 967.40 -34.60
93.75 973.70 -34.85
97.19 980.90 -35.14
100.68 988.10 -35.42
104.21 995.30 -35.71
108.22 1006.10 -36.14
9.20 1011.50 -39.17
11.81 998.90 -38.62
14.45 993.50 -38.39
17.10 989.90 -38.24
19.69 984.50 -38.00
22.12 974.60 -37.58
24.55 966.50 -37.23
26.99 960.20 -36.96
29.48 956.60 -36.80
32.05 955.70 -36.76
34.69 956.60 -36.80
37.29 956.60 -36.80
39.85 955.70 -36.76
42.41 954.80 -36.72
44.96 953.90 -36.68
47.45 952.10 -36.60
49.99 951.20 -36.56
52.57 951.20 -36.56
55.22 952.10 -36.60
57.87 953.00 -36.64
60.52 953.90 -36.67
63.11 953.90 -36.67
65.78 954.80 -36.71
68.37 954.80 -36.71
71.04 955.70 -36.75
73.72 956.60 -36.78
76.48 958.40 -36.86
79.25 960.20 -36.93
82.11 962.90 -37.05
85.00 965.60 -37.16
88.08 970.10 -37.36
91.47 977.30 -37.66
94.81 983.60 -37.93
98.28 990.80 -38.24
101.70 997.10 -38.51
105.47 1006.10 -38.89
12.03 1016.00 -42.15
14.69 1007.90 -41.77
17.33 1001.60 -41.48
19.97 997.10 -41.27
22.42 986.30 -40.78
24.76 973.70 -40.19
27.10 963.80 -39.74
29.54 958.40 -39.49
32.08 956.60 -39.40
34.69 956.60 -39.40
37.33 957.50 -39.44
40.02 959.30 -39.53
42.63 959.30 -39.52
45.10 956.60 -39.40
47.60 954.80 -39.32
50.20 954.80 -39.31
52.85 955.70 -39.35
55.45 955.70 -39.35
58.17 957.50 -39.44
60.90 959.30 -39.52
63.45 958.40 -39.47
66.12 959.30 -39.51
68.73 959.30 -39.51
71.56 962.00 -39.64
74.18 962.00 -39.63
77.04 964.70 -39.76
79.83 966.50 -39.84
82.89 971.00 -40.04
85.97 975.50 -40.25
89.17 980.90 -40.50
92.60 988.10 -40.82
95.87 993.50 -41.07
99.38 1000.70 -41.40
102.93 1007.90 -41.73
20.37 1015.10 -44.88
22.94 1007.00 -44.49
25.27 991.70 -43.73
27.50 976.40 -42.98
29.82 966.50 -42.49
32.35 963.80 -42.36
34.94 962.90 -42.32
37.60 963.80 -42.36
40.35 966.50 -42.49
42.99 966.50 -42.49
45.62 966.50 -42.49
48.15 964.70 -42.40
50.78 964.70 -42.40
53.41 964.70 -42.40
56.21 967.40 -42.53
58.96 969.20 -42.62
61.80 971.90 -42.75
64.38 971.00 -42.70
67.16 972.80 -42.79
69.74 971.90 -42.74
72.61 974.60 -42.87
75.34 975.50 -42.92
78.24 978.20 -43.05
81.07 980.00 -43.13
84.17 984.50 -43.35
87.47 990.80 -43.66
90.91 998.00 -44.01
94.38 1005.20 -44.36
97.61 1009.70 -44.58
28.29 1001.60 -46.96
30.50 986.30 -46.16
32.89 978.20 -45.74
35.49 976.40 -45.64
38.15 976.40 -45.64
40.94 979.10 -45.78
43.66 980.00 -45.83
46.52 983.60 -46.01
49.26 984.50 -46.06
52.00 985.40 -46.11
54.69 985.40 -46.10
57.49 987.20 -46.20
60.31 989.00 -46.29
63.14 990.80 -46.38
65.97 992.60 -46.47
68.89 995.30 -46.61
71.76 997.10 -46.70
74.70 999.80 -46.84
77.51 1000.70 -46.89
80.41 1002.50 -46.98
83.31 1004.30 -47.07
86.31 1007.00 -47.21
89.60 1012.40 -47.49
34.21 1013.30 -50.34
36.80 1008.80 -50.09
39.56 1008.80 -50.09
42.45 1011.50 -50.24
45.22 1011.50 -50.24
48.23 1016.00 -50.49
